<?xml version="1.0" encoding="UTF-8" standalone="no"?>
<svg
   xmlns:dc="http://purl.org/dc/elements/1.1/"
   xmlns:cc="http://creativecommons.org/ns#"
   xmlns:rdf="http://www.w3.org/1999/02/22-rdf-syntax-ns#"
   xmlns:svg="http://www.w3.org/2000/svg"
   xmlns="http://www.w3.org/2000/svg"
   viewBox="0 0 422.8165 52.426498"
   height="52.426498"
   width="422.8165"
   xml:space="preserve"
   version="1.1"
   id="svg4572"><metadata
     id="metadata4578"><rdf:RDF><cc:Work
         rdf:about=""><dc:format>image/svg+xml</dc:format><dc:type
           rdf:resource="http://purl.org/dc/dcmitype/StillImage" /><dc:title></dc:title></cc:Work></rdf:RDF></metadata><defs
     id="defs4576"><clipPath
       id="clipPath4588"
       clipPathUnits="userSpaceOnUse"><path
         id="path4590"
         d="M 0,144 360,144 360,0 0,0 0,144 Z" /></clipPath></defs><g
     transform="matrix(1.25,0,0,-1.25,-13.111,115.649)"
     id="g4580"><path
       id="path4582"
       style="fill:#ffffff;fill-opacity:1;fill-rule:nonzero;stroke:none"
       d="m 66.895,91.987 8.683,0 0,-41.35 -8.683,0 0,41.35 z" /><path
       d="m 113.0874,50.6377 -8.506,0 0,24.396 -15.889,0 0,-24.396 -8.506,0 0,24.396 c 0,5.139 3.366,8.507 8.506,8.507 3.544,0 7.147,0.118 10.75,0.118 1.891,0 3.84,-0.06 5.73,-0.178 9.333,-0.708 8.034,-9.688 8.034,-16.482 0,-5.433 -0.119,-10.926 -0.119,-16.361"
       style="fill:#ffffff;fill-opacity:1;fill-rule:nonzero;stroke:none"
       id="path4594" /><path
       d="m 132.2896,75.0342 0,-24.396 -8.506,0 0,24.396 -8.092,0 0,8.506 8.092,0 0,8.979 8.506,0 0,-8.979 8.151,0 0,-8.506 -8.151,0 z"
       style="fill:#ffffff;fill-opacity:1;fill-rule:nonzero;stroke:none"
       id="path4598" /><path
       id="path4600"
       style="fill:#ffffff;fill-opacity:1;fill-rule:nonzero;stroke:none"
       d="m 165.844,75.034 -15.889,0 0,-3.544 15.889,0 0,3.544 z M 149.955,50.578 c -8.802,0 -8.625,7.209 -8.625,13.766 0,3.543 0.118,7.086 0.118,10.631 0,5.139 3.367,8.566 8.507,8.566 3.543,0 7.147,0.118 10.75,0.118 7.738,0 13.644,-0.118 13.644,-9.748 0,-5.905 -1.535,-10.867 -8.505,-10.867 l -15.889,0 0,-3.898 24.394,0 0,-8.568 -24.394,0 z" /><path
       d="m 211.9229,67.3545 -8.507,0 0,7.68 -15.889,0 0,-24.397 -8.506,0 0,32.903 24.395,0 c 7.088,0 8.624,-4.903 8.565,-10.929 l -0.058,-5.257 z"
       style="fill:#ffffff;fill-opacity:1;fill-rule:nonzero;stroke:none"
       id="path4604" /><path
       d="m 251.8574,50.6377 0,31.722 -7.267,-31.722 -13.23,0 -7.265,31.722 0,-31.722 -8.684,0 0,41.35 15.063,0 7.503,-32.665 7.501,32.665 15.062,0 0,-41.35 -8.683,0 z"
       style="fill:#373535;fill-opacity:1;fill-rule:nonzero;stroke:none"
       id="path4608" /><path
       id="path4610"
       style="fill:#373535;fill-opacity:1;fill-rule:nonzero;stroke:none"
       d="m 265.214,82.417 8.506,0 0,-31.78 -8.506,0 0,31.78 z m 0,9.51 8.506,0 0,-8.387 -8.506,0 0,8.387 z" /><path
       d="m 311.1709,50.6377 -8.506,0 0,24.396 -15.89,0 0,-24.396 -8.505,0 0,24.396 c 0,5.139 3.367,8.507 8.505,8.507 3.545,0 7.148,0.118 10.75,0.118 1.891,0 3.84,-0.06 5.73,-0.178 9.334,-0.708 8.034,-9.688 8.034,-16.482 0,-5.433 -0.118,-10.926 -0.118,-16.361"
       style="fill:#373535;fill-opacity:1;fill-rule:nonzero;stroke:none"
       id="path4614" /><path
       id="path4616"
       style="fill:#373535;fill-opacity:1;fill-rule:nonzero;stroke:none"
       d="m 340.237,75.034 -15.889,0 0,-3.544 15.889,0 0,3.544 z M 324.349,50.578 c -8.801,0 -8.625,7.209 -8.625,13.766 0,3.543 0.118,7.086 0.118,10.631 0,5.139 3.367,8.566 8.507,8.566 3.542,0 7.146,0.118 10.751,0.118 7.736,0 13.642,-0.118 13.642,-9.748 0,-5.905 -1.535,-10.867 -8.505,-10.867 l -15.888,0 0,-3.898 24.393,0 0,-8.568 -24.393,0 z" /><path
       d="m 35.7813,80.4639 c 0,-0.544 0.334,-0.986 0.745,-0.986 l 22.141,0 c 0.412,0 0.746,0.442 0.746,0.986 l 0,9.965 c 0,0.547 -0.334,0.986 -0.746,0.986 l -22.141,0 c -0.411,0 -0.745,-0.439 -0.745,-0.986 l 0,-9.965 z"
       style="fill:#ffffff;fill-opacity:1;fill-rule:nonzero;stroke:none"
       id="path4620" /><path
       d="m 10.4888,80.4639 c 0,-0.544 0.334,-0.986 0.746,-0.986 l 22.143,0 c 0.409,0 0.742,0.442 0.742,0.986 l 0,9.965 c 0,0.547 -0.333,0.986 -0.742,0.986 l -22.143,0 c -0.412,0 -0.746,-0.439 -0.746,-0.986 l 0,-9.965 z"
       style="fill:#373535;fill-opacity:1;fill-rule:nonzero;stroke:none"
       id="path4624" /><path
       d="m 35.7813,66.25 c 0,-0.541 0.334,-0.983 0.745,-0.983 l 22.141,0 c 0.412,0 0.746,0.442 0.746,0.983 l 0,9.966 c 0,0.545 -0.334,0.989 -0.746,0.989 l -22.141,0 c -0.411,0 -0.745,-0.444 -0.745,-0.989 l 0,-9.966 z"
       style="fill:#373535;fill-opacity:1;fill-rule:nonzero;stroke:none"
       id="path4628" /><path
       d="m 10.4888,66.25 c 0,-0.541 0.334,-0.983 0.746,-0.983 l 22.143,0 c 0.409,0 0.742,0.442 0.742,0.983 l 0,9.966 c 0,0.545 -0.333,0.989 -0.742,0.989 l -22.143,0 c -0.412,0 -0.746,-0.444 -0.746,-0.989 l 0,-9.966 z"
       style="fill:#ffffff;fill-opacity:1;fill-rule:nonzero;stroke:none"
       id="path4632" /><path
       d="m 35.7813,51.9492 c 0,-0.547 0.334,-0.985 0.745,-0.985 l 22.141,0 c 0.412,0 0.746,0.438 0.746,0.985 l 0,9.966 c 0,0.544 -0.334,0.982 -0.746,0.982 l -22.141,0 c -0.411,0 -0.745,-0.438 -0.745,-0.982 l 0,-9.966 z"
       style="fill:#373535;fill-opacity:1;fill-rule:nonzero;stroke:none"
       id="path4636" /><path
       d="m 10.4888,51.9492 c 0,-0.547 0.334,-0.985 0.746,-0.985 l 22.143,0 c 0.409,0 0.742,0.438 0.742,0.985 l 0,9.966 c 0,0.544 -0.333,0.982 -0.742,0.982 l -22.143,0 c -0.412,0 -0.746,-0.438 -0.746,-0.982 l 0,-9.966 z"
       style="fill:#ffffff;fill-opacity:1;fill-rule:nonzero;stroke:none"
       id="path4640" /></g></svg>