<?xml version="1.0" encoding="UTF-8" standalone="no"?>
<!-- Created with Inkscape (http://www.inkscape.org/) -->

<svg
   xmlns:dc="http://purl.org/dc/elements/1.1/"
   xmlns:cc="http://creativecommons.org/ns#"
   xmlns:rdf="http://www.w3.org/1999/02/22-rdf-syntax-ns#"
   xmlns:svg="http://www.w3.org/2000/svg"
   xmlns="http://www.w3.org/2000/svg"
   xmlns:sodipodi="http://sodipodi.sourceforge.net/DTD/sodipodi-0.dtd"
   xmlns:inkscape="http://www.inkscape.org/namespaces/inkscape"
   id="svg4572"
   version="1.1"
   inkscape:version="0.91 r13725"
   xml:space="preserve"
   width="422.8165"
   height="52.426498"
   viewBox="0 0 422.8165 52.426498"
   sodipodi:docname="InterMine-logo.svg"><metadata
     id="metadata4578"><rdf:RDF><cc:Work
         rdf:about=""><dc:format>image/svg+xml</dc:format><dc:type
           rdf:resource="http://purl.org/dc/dcmitype/StillImage" /><dc:title></dc:title></cc:Work></rdf:RDF></metadata><defs
     id="defs4576"><clipPath
       clipPathUnits="userSpaceOnUse"
       id="clipPath4588"><path
         d="M 0,144 360,144 360,0 0,0 0,144 Z"
         id="path4590"
         inkscape:connector-curvature="0" /></clipPath></defs><sodipodi:namedview
     pagecolor="#ffffff"
     bordercolor="#666666"
     borderopacity="1"
     objecttolerance="10"
     gridtolerance="10"
     guidetolerance="10"
     inkscape:pageopacity="0"
     inkscape:pageshadow="2"
     inkscape:window-width="1920"
     inkscape:window-height="1024"
     id="namedview4574"
     showgrid="false"
     inkscape:zoom="1.48"
     inkscape:cx="-12.580621"
     inkscape:cy="-62.238385"
     inkscape:window-x="1920"
     inkscape:window-y="28"
     inkscape:window-maximized="1"
     inkscape:current-layer="g4580"
     fit-margin-top="0"
     fit-margin-left="0"
     fit-margin-right="0"
     fit-margin-bottom="0" /><g
     id="g4580"
     inkscape:groupmode="layer"
     inkscape:label="InterMine"
     transform="matrix(1.25,0,0,-1.25,-13.111,115.649)"><g
       id="g4680"><path
         inkscape:connector-curvature="0"
         id="path4582"
         style="fill:#c0d848;fill-opacity:1;fill-rule:nonzero;stroke:none"
         d="m 66.895,91.987 8.683,0 0,-41.35 -8.683,0 0,41.35 z" /><g
         id="g4584"><g
           clip-path="url(#clipPath4588)"
           id="g4586"><g
             transform="translate(113.0874,50.6377)"
             id="g4592"><path
               inkscape:connector-curvature="0"
               id="path4594"
               style="fill:#c0d848;fill-opacity:1;fill-rule:nonzero;stroke:none"
               d="m 0,0 -8.506,0 0,24.396 -15.889,0 0,-24.396 -8.506,0 0,24.396 c 0,5.139 3.366,8.507 8.506,8.507 3.544,0 7.147,0.118 10.75,0.118 1.891,0 3.84,-0.06 5.73,-0.178 C 1.418,32.135 0.119,23.155 0.119,16.361 0.119,10.928 0,5.435 0,0" /></g><g
             transform="translate(132.2896,75.0342)"
             id="g4596"><path
               inkscape:connector-curvature="0"
               id="path4598"
               style="fill:#c0d848;fill-opacity:1;fill-rule:nonzero;stroke:none"
               d="m 0,0 0,-24.396 -8.506,0 0,24.396 -8.092,0 0,8.506 8.092,0 0,8.979 8.506,0 0,-8.979 8.151,0 L 8.151,0 0,0 Z" /></g><path
             inkscape:connector-curvature="0"
             id="path4600"
             style="fill:#c0d848;fill-opacity:1;fill-rule:nonzero;stroke:none"
             d="m 165.844,75.034 -15.889,0 0,-3.544 15.889,0 0,3.544 z M 149.955,50.578 c -8.802,0 -8.625,7.209 -8.625,13.766 0,3.543 0.118,7.086 0.118,10.631 0,5.139 3.367,8.566 8.507,8.566 3.543,0 7.147,0.118 10.75,0.118 7.738,0 13.644,-0.118 13.644,-9.748 0,-5.905 -1.535,-10.867 -8.505,-10.867 l -15.889,0 0,-3.898 24.394,0 0,-8.568 -24.394,0 z" /><g
             transform="translate(211.9229,67.3545)"
             id="g4602"><path
               inkscape:connector-curvature="0"
               id="path4604"
               style="fill:#c0d848;fill-opacity:1;fill-rule:nonzero;stroke:none"
               d="m 0,0 -8.507,0 0,7.68 -15.889,0 0,-24.397 -8.506,0 0,32.903 24.395,0 c 7.088,0 8.624,-4.903 8.565,-10.929 L 0,0 Z" /></g><g
             transform="translate(251.8574,50.6377)"
             id="g4606"><path
               inkscape:connector-curvature="0"
               id="path4608"
               style="fill:#373535;fill-opacity:1;fill-rule:nonzero;stroke:none"
               d="M 0,0 0,31.722 -7.267,0 l -13.23,0 -7.265,31.722 0,-31.722 -8.684,0 0,41.35 15.063,0 7.503,-32.665 7.501,32.665 15.062,0 L 8.683,0 0,0 Z" /></g><path
             inkscape:connector-curvature="0"
             id="path4610"
             style="fill:#373535;fill-opacity:1;fill-rule:nonzero;stroke:none"
             d="m 265.214,82.417 8.506,0 0,-31.78 -8.506,0 0,31.78 z m 0,9.51 8.506,0 0,-8.387 -8.506,0 0,8.387 z" /><g
             transform="translate(311.1709,50.6377)"
             id="g4612"><path
               inkscape:connector-curvature="0"
               id="path4614"
               style="fill:#373535;fill-opacity:1;fill-rule:nonzero;stroke:none"
               d="m 0,0 -8.506,0 0,24.396 -15.89,0 0,-24.396 -8.505,0 0,24.396 c 0,5.139 3.367,8.507 8.505,8.507 3.545,0 7.148,0.118 10.75,0.118 1.891,0 3.84,-0.06 5.73,-0.178 C 1.418,32.135 0.118,23.155 0.118,16.361 0.118,10.928 0,5.435 0,0" /></g><path
             inkscape:connector-curvature="0"
             id="path4616"
             style="fill:#373535;fill-opacity:1;fill-rule:nonzero;stroke:none"
             d="m 340.237,75.034 -15.889,0 0,-3.544 15.889,0 0,3.544 z M 324.349,50.578 c -8.801,0 -8.625,7.209 -8.625,13.766 0,3.543 0.118,7.086 0.118,10.631 0,5.139 3.367,8.566 8.507,8.566 3.542,0 7.146,0.118 10.751,0.118 7.736,0 13.642,-0.118 13.642,-9.748 0,-5.905 -1.535,-10.867 -8.505,-10.867 l -15.888,0 0,-3.898 24.393,0 0,-8.568 -24.393,0 z" /><g
             transform="translate(35.7813,80.4639)"
             id="g4618"><path
               inkscape:connector-curvature="0"
               id="path4620"
               style="fill:#c0d848;fill-opacity:1;fill-rule:nonzero;stroke:none"
               d="m 0,0 c 0,-0.544 0.334,-0.986 0.745,-0.986 l 22.141,0 c 0.412,0 0.746,0.442 0.746,0.986 l 0,9.965 c 0,0.547 -0.334,0.986 -0.746,0.986 l -22.141,0 C 0.334,10.951 0,10.512 0,9.965 L 0,0 Z" /></g><g
             transform="translate(10.4888,80.4639)"
             id="g4622"><path
               inkscape:connector-curvature="0"
               id="path4624"
               style="fill:#373535;fill-opacity:1;fill-rule:nonzero;stroke:none"
               d="m 0,0 c 0,-0.544 0.334,-0.986 0.746,-0.986 l 22.143,0 c 0.409,0 0.742,0.442 0.742,0.986 l 0,9.965 c 0,0.547 -0.333,0.986 -0.742,0.986 l -22.143,0 C 0.334,10.951 0,10.512 0,9.965 L 0,0 Z" /></g><g
             transform="translate(35.7813,66.25)"
             id="g4626"><path
               inkscape:connector-curvature="0"
               id="path4628"
               style="fill:#373535;fill-opacity:1;fill-rule:nonzero;stroke:none"
               d="m 0,0 c 0,-0.541 0.334,-0.983 0.745,-0.983 l 22.141,0 c 0.412,0 0.746,0.442 0.746,0.983 l 0,9.966 c 0,0.545 -0.334,0.989 -0.746,0.989 l -22.141,0 C 0.334,10.955 0,10.511 0,9.966 L 0,0 Z" /></g><g
             transform="translate(10.4888,66.25)"
             id="g4630"><path
               inkscape:connector-curvature="0"
               id="path4632"
               style="fill:#c0d848;fill-opacity:1;fill-rule:nonzero;stroke:none"
               d="m 0,0 c 0,-0.541 0.334,-0.983 0.746,-0.983 l 22.143,0 c 0.409,0 0.742,0.442 0.742,0.983 l 0,9.966 c 0,0.545 -0.333,0.989 -0.742,0.989 l -22.143,0 C 0.334,10.955 0,10.511 0,9.966 L 0,0 Z" /></g><g
             transform="translate(35.7813,51.9492)"
             id="g4634"><path
               inkscape:connector-curvature="0"
               id="path4636"
               style="fill:#373535;fill-opacity:1;fill-rule:nonzero;stroke:none"
               d="m 0,0 c 0,-0.547 0.334,-0.985 0.745,-0.985 l 22.141,0 c 0.412,0 0.746,0.438 0.746,0.985 l 0,9.966 c 0,0.544 -0.334,0.982 -0.746,0.982 l -22.141,0 C 0.334,10.948 0,10.51 0,9.966 L 0,0 Z" /></g><g
             transform="translate(10.4888,51.9492)"
             id="g4638"><path
               inkscape:connector-curvature="0"
               id="path4640"
               style="fill:#c0d848;fill-opacity:1;fill-rule:nonzero;stroke:none"
               d="m 0,0 c 0,-0.547 0.334,-0.985 0.746,-0.985 l 22.143,0 c 0.409,0 0.742,0.438 0.742,0.985 l 0,9.966 c 0,0.544 -0.333,0.982 -0.742,0.982 l -22.143,0 C 0.334,10.948 0,10.51 0,9.966 L 0,0 Z" /></g></g></g></g></g></svg>