<?xml version="1.0" encoding="UTF-8" standalone="no"?>
<!-- Created with Inkscape (http://www.inkscape.org/) -->

<svg
   xmlns:dc="http://purl.org/dc/elements/1.1/"
   xmlns:cc="http://creativecommons.org/ns#"
   xmlns:rdf="http://www.w3.org/1999/02/22-rdf-syntax-ns#"
   xmlns:svg="http://www.w3.org/2000/svg"
   xmlns="http://www.w3.org/2000/svg"
   xmlns:sodipodi="http://sodipodi.sourceforge.net/DTD/sodipodi-0.dtd"
   xmlns:inkscape="http://www.inkscape.org/namespaces/inkscape"
   width="210mm"
   height="297mm"
   viewBox="0 0 744.09448819 1052.3622047"
   id="svg4270"
   version="1.1"
   inkscape:version="0.91 r13725"
   sodipodi:docname="squareish-dark.svg"
   inkscape:export-filename="/home/FILESERVER5/micklem/yy406/projects/design-materials/logos/intermine/squareish-dark-bg-50px.png"
   inkscape:export-xdpi="70.603065"
   inkscape:export-ydpi="70.603065">
  <defs
     id="defs4272" />
  <sodipodi:namedview
     id="base"
     pagecolor="#ffffff"
     bordercolor="#666666"
     borderopacity="1.0"
     inkscape:pageopacity="0.0"
     inkscape:pageshadow="2"
     inkscape:zoom="0.98994949"
     inkscape:cx="342.52108"
     inkscape:cy="479.26753"
     inkscape:document-units="px"
     inkscape:current-layer="layer1"
     showgrid="false"
     showguides="true"
     inkscape:guide-bbox="true"
     inkscape:window-width="1377"
     inkscape:window-height="832"
     inkscape:window-x="2082"
     inkscape:window-y="148"
     inkscape:window-maximized="0">
    <sodipodi:guide
       position="160.61426,427.29454"
       orientation="1,0"
       id="guide4920" />
    <sodipodi:guide
       position="512.14734,407.09148"
       orientation="1,0"
       id="guide4922" />
  </sodipodi:namedview>
  <metadata
     id="metadata4275">
    <rdf:RDF>
      <cc:Work
         rdf:about="">
        <dc:format>image/svg+xml</dc:format>
        <dc:type
           rdf:resource="http://purl.org/dc/dcmitype/StillImage" />
        <dc:title></dc:title>
      </cc:Work>
    </rdf:RDF>
  </metadata>
  <g
     inkscape:label="Layer 1"
     inkscape:groupmode="layer"
     id="layer1">
    <rect
       style="opacity:1;fill:#000000;fill-opacity:1;stroke:#cecece;stroke-width:2.49999976;stroke-linecap:round;stroke-linejoin:miter;stroke-miterlimit:4;stroke-dasharray:none;stroke-opacity:0"
       id="rect5018"
       width="379.48297"
       height="386.2933"
       x="147.8167"
       y="274.54477"
       ry="3"
       rx="3" />
    <g
       id="g4618"
       transform="matrix(7.1564714,0,0,-7.1564714,342.91525,367.02953)">
      <path
         d="m 0,0 c 0,-0.544 0.334,-0.986 0.745,-0.986 l 22.141,0 c 0.412,0 0.746,0.442 0.746,0.986 l 0,9.965 c 0,0.547 -0.334,0.986 -0.746,0.986 l -22.141,0 C 0.334,10.951 0,10.512 0,9.965 L 0,0 Z"
         style="fill:#c0d848;fill-opacity:1;fill-rule:nonzero;stroke:none"
         id="path4620"
         inkscape:connector-curvature="0" />
    </g>
    <g
       id="g4622"
       transform="matrix(7.1564714,0,0,-7.1564714,161.91018,367.02953)"
       style="fill:#ffffff">
      <path
         d="m 0,0 c 0,-0.544 0.334,-0.986 0.746,-0.986 l 22.143,0 c 0.409,0 0.742,0.442 0.742,0.986 l 0,9.965 c 0,0.547 -0.333,0.986 -0.742,0.986 l -22.143,0 C 0.334,10.951 0,10.512 0,9.965 L 0,0 Z"
         style="fill:#ffffff;fill-opacity:1;fill-rule:nonzero;stroke:none"
         id="path4624"
         inkscape:connector-curvature="0" />
    </g>
    <g
       id="g4626"
       transform="matrix(7.1564714,0,0,-7.1564714,342.91525,468.75087)"
       style="fill:#ffffff">
      <path
         d="m 0,0 c 0,-0.541 0.334,-0.983 0.745,-0.983 l 22.141,0 c 0.412,0 0.746,0.442 0.746,0.983 l 0,9.966 c 0,0.545 -0.334,0.989 -0.746,0.989 l -22.141,0 C 0.334,10.955 0,10.511 0,9.966 L 0,0 Z"
         style="fill:#ffffff;fill-opacity:1;fill-rule:nonzero;stroke:none"
         id="path4628"
         inkscape:connector-curvature="0" />
    </g>
    <g
       id="g4630"
       transform="matrix(7.1564714,0,0,-7.1564714,161.91018,468.75087)">
      <path
         d="m 0,0 c 0,-0.541 0.334,-0.983 0.746,-0.983 l 22.143,0 c 0.409,0 0.742,0.442 0.742,0.983 l 0,9.966 c 0,0.545 -0.333,0.989 -0.742,0.989 l -22.143,0 C 0.334,10.955 0,10.511 0,9.966 L 0,0 Z"
         style="fill:#c0d848;fill-opacity:1;fill-rule:nonzero;stroke:none"
         id="path4632"
         inkscape:connector-curvature="0" />
    </g>
    <g
       id="g4634"
       transform="matrix(7.1564714,0,0,-7.1564714,342.91525,571.09414)"
       style="fill:#ffffff">
      <path
         d="m 0,0 c 0,-0.547 0.334,-0.985 0.745,-0.985 l 22.141,0 c 0.412,0 0.746,0.438 0.746,0.985 l 0,9.966 c 0,0.544 -0.334,0.982 -0.746,0.982 l -22.141,0 C 0.334,10.948 0,10.51 0,9.966 L 0,0 Z"
         style="fill:#ffffff;fill-opacity:1;fill-rule:nonzero;stroke:none"
         id="path4636"
         inkscape:connector-curvature="0" />
    </g>
    <g
       id="g4638"
       transform="matrix(7.1564714,0,0,-7.1564714,161.91018,571.09414)">
      <path
         d="m 0,0 c 0,-0.547 0.334,-0.985 0.746,-0.985 l 22.143,0 c 0.409,0 0.742,0.438 0.742,0.985 l 0,9.966 c 0,0.544 -0.333,0.982 -0.742,0.982 l -22.143,0 C 0.334,10.948 0,10.51 0,9.966 L 0,0 Z"
         style="fill:#c0d848;fill-opacity:1;fill-rule:nonzero;stroke:none"
         id="path4640"
         inkscape:connector-curvature="0" />
    </g>
    <path
       d="m 160.22642,595.47907 10.85375,0 0,51.6875 -10.85375,0 0,-51.6875 z"
       style="fill:#c0d848;fill-opacity:1;fill-rule:nonzero;stroke:none"
       id="path4582"
       inkscape:connector-curvature="0" />
    <g
       id="g4592"
       transform="matrix(1.25,0,0,-1.25,217.96692,647.1657)">
      <path
         d="m 0,0 -8.506,0 0,24.396 -15.889,0 0,-24.396 -8.506,0 0,24.396 c 0,5.139 3.366,8.507 8.506,8.507 3.544,0 7.147,0.118 10.75,0.118 1.891,0 3.84,-0.06 5.73,-0.178 C 1.418,32.135 0.119,23.155 0.119,16.361 0.119,10.928 0,5.435 0,0"
         style="fill:#c0d848;fill-opacity:1;fill-rule:nonzero;stroke:none"
         id="path4594"
         inkscape:connector-curvature="0" />
    </g>
    <g
       id="g4596"
       transform="matrix(1.25,0,0,-1.25,241.96967,616.67007)">
      <path
         d="m 0,0 0,-24.396 -8.506,0 0,24.396 -8.092,0 0,8.506 8.092,0 0,8.979 8.506,0 0,-8.979 8.151,0 L 8.151,0 0,0 Z"
         style="fill:#c0d848;fill-opacity:1;fill-rule:nonzero;stroke:none"
         id="path4598"
         inkscape:connector-curvature="0" />
    </g>
    <path
       d="m 283.91267,616.67032 -19.86125,0 0,4.43 19.86125,0 0,-4.43 z m -19.86125,30.57 c -11.0025,0 -10.78125,-9.01125 -10.78125,-17.2075 0,-4.42875 0.1475,-8.8575 0.1475,-13.28875 0,-6.42375 4.20875,-10.7075 10.63375,-10.7075 4.42875,0 8.93375,-0.1475 13.4375,-0.1475 9.6725,0 17.055,0.1475 17.055,12.185 0,7.38125 -1.91875,13.58375 -10.63125,13.58375 l -19.86125,0 0,4.8725 30.4925,0 0,10.71 -30.4925,0 z"
       style="fill:#c0d848;fill-opacity:1;fill-rule:nonzero;stroke:none"
       id="path4600"
       inkscape:connector-curvature="0" />
    <g
       id="g4602"
       transform="matrix(1.25,0,0,-1.25,341.51129,626.26969)">
      <path
         d="m 0,0 -8.507,0 0,7.68 -15.889,0 0,-24.397 -8.506,0 0,32.903 24.395,0 c 7.088,0 8.624,-4.903 8.565,-10.929 L 0,0 Z"
         style="fill:#c0d848;fill-opacity:1;fill-rule:nonzero;stroke:none"
         id="path4604"
         inkscape:connector-curvature="0" />
    </g>
    <g
       id="g4606"
       transform="matrix(1.25,0,0,-1.25,391.42942,647.1657)"
       style="fill:#ffffff">
      <path
         d="M 0,0 0,31.722 -7.267,0 l -13.23,0 -7.265,31.722 0,-31.722 -8.684,0 0,41.35 15.063,0 7.503,-32.665 7.501,32.665 15.062,0 L 8.683,0 0,0 Z"
         style="fill:#ffffff;fill-opacity:1;fill-rule:nonzero;stroke:none"
         id="path4608"
         inkscape:connector-curvature="0" />
    </g>
    <path
       d="m 408.12517,607.44157 10.6325,0 0,39.725 -10.6325,0 0,-39.725 z m 0,-11.8875 10.6325,0 0,10.48375 -10.6325,0 0,-10.48375 z"
       style="fill:#ffffff;fill-opacity:1;fill-rule:nonzero;stroke:none"
       id="path4610"
       inkscape:connector-curvature="0" />
    <g
       id="g4612"
       transform="matrix(1.25,0,0,-1.25,465.5713,647.1657)"
       style="fill:#ffffff">
      <path
         d="m 0,0 -8.506,0 0,24.396 -15.89,0 0,-24.396 -8.505,0 0,24.396 c 0,5.139 3.367,8.507 8.505,8.507 3.545,0 7.148,0.118 10.75,0.118 1.891,0 3.84,-0.06 5.73,-0.178 C 1.418,32.135 0.118,23.155 0.118,16.361 0.118,10.928 0,5.435 0,0"
         style="fill:#ffffff;fill-opacity:1;fill-rule:nonzero;stroke:none"
         id="path4614"
         inkscape:connector-curvature="0" />
    </g>
    <path
       d="m 501.90392,616.67032 -19.86125,0 0,4.43 19.86125,0 0,-4.43 z m -19.86,30.57 c -11.00125,0 -10.78125,-9.01125 -10.78125,-17.2075 0,-4.42875 0.1475,-8.8575 0.1475,-13.28875 0,-6.42375 4.20875,-10.7075 10.63375,-10.7075 4.4275,0 8.9325,-0.1475 13.43875,-0.1475 9.67,0 17.0525,0.1475 17.0525,12.185 0,7.38125 -1.91875,13.58375 -10.63125,13.58375 l -19.86,0 0,4.8725 30.49125,0 0,10.71 -30.49125,0 z"
       style="fill:#ffffff;fill-opacity:1;fill-rule:nonzero;stroke:none"
       id="path4616"
       inkscape:connector-curvature="0" />
  </g>
</svg>
