<svg xmlns:gliffy="http://www.gliffy.com" xmlns:x="http://ns.adobe.com/Extensibility/1.0/" xmlns:i="http://ns.adobe.com/AdobeIllustrator/10.0/" xmlns:graph="http://ns.adobe.com/Graphs/1.0/" xmlns:a="http://ns.adobe.com/AdobeSVGViewerExtensions/3.0/" xmlns="http://www.w3.org/2000/svg" xmlns:xlink="http://www.w3.org/1999/xlink" width="801" height="398">
    <rect stroke="#000000" stroke-width="0" fill="#ffffff" x="0" y="0" width="800" height="402" />
    <g transform="translate(191.0,305.0) rotate(0 52.75 39.0)">
        <line x1="0.0" y1="0.0" x2="105.28942115768463" y2="0.0" style="stroke-dasharray: 8, 3, 2, 3" stroke="#000000" stroke-width="1.0" fill="#ffffff" />
        <line x1="105.28942115768463" y1="0.0" x2="105.28942115768463" y2="77.68924302788844" style="stroke-dasharray: 8, 3, 2, 3" stroke="#000000" stroke-width="1.0" fill="#ffffff" />
        <line x1="105.28942115768463" y1="77.68924302788844" x2="0.0" y2="77.68924302788844" style="stroke-dasharray: 8, 3, 2, 3" stroke="#000000" stroke-width="1.0" fill="#ffffff" />
        <line x1="0.0" y1="77.68924302788844" x2="0.0" y2="0.0" style="stroke-dasharray: 8, 3, 2, 3" stroke="#000000" stroke-width="1.0" fill="#ffffff" />
        <g></g>
    </g>
    <g transform="translate(405.0,77.0)">
        <line x1="0.0" y1="0.0" x2="-93.5" y2="-6.123233995736766E-17" stroke-dasharray="23, 0" stroke="#000000" stroke-width="1" />
        <g transform="translate(-94.0,0.0) rotate(360.0)">
            <polygon points="2.0,0 8.0,-3.0 8.0,3.0" fill="#000000" stroke="#000000" stroke-width="1.0" />
        </g>
    </g>
    <g transform="translate(398.875,96.0)">
        <line x1="-0.5" y1="1.2246467991473532E-16" x2="-95.875" y2="0.0" stroke-dasharray="23, 0" stroke="#000000" stroke-width="1" />
        <g transform="translate(0.0,0.0) rotate(180.0)">
            <polygon points="2.0,0 8.0,-3.0 8.0,3.0" fill="#000000" stroke="#000000" stroke-width="1.0" />
        </g>
    </g>
    <g transform="translate(305.0,196.0)">
        <line x1="0.5" y1="-6.123233995736766E-17" x2="96.5" y2="0.0" stroke-dasharray="23, 0" stroke="#000000" stroke-width="1" />
        <g transform="translate(0.0,0.0) rotate(0.0)">
            <polygon points="2.0,0 8.0,-3.0 8.0,3.0" fill="#000000" stroke="#000000" stroke-width="1.0" />
        </g>
        <g transform="translate(38.25,0.0)">
            <rect fill="#ffffff" x="-34.0" y="-16.0" width="68.0" height="14" />
            <text x="0.0" style="text-anchor: middle" y="-5.0">
                <tspan font-size="12px" font-family="Arial" fill="#000000">Generated</tspan>
            </text>
            <rect fill="#ffffff" x="-34.0" y="0.8000000000000007" width="68.0" height="14" />
            <text x="0.0" style="text-anchor: middle" y="11.8">
                <tspan font-size="12px" font-family="Arial" fill="#000000">SQL</tspan>
            </text>
        </g>
    </g>
    <g transform="translate(499.0,288.0)">
        <line x1="0.0" y1="0.0" x2="0.0" y2="-60.0" stroke-dasharray="23, 0" stroke="#000000" stroke-width="1" />
        <g transform="translate(0.0,-60.5) rotate(450.0)">
            <polygon points="2.0,0 8.0,-3.0 8.0,3.0" fill="#000000" stroke="#000000" stroke-width="1.0" />
        </g>
        <g transform="translate(10.0,-35.25)">
            <rect fill="#ffffff" x="-24.0" y="-16.0" width="48.0" height="14" />
            <text x="0.0" style="text-anchor: middle" y="-5.0">
                <tspan font-size="12px" font-family="Arial" fill="#000000">JDBC</tspan>
            </text>
            <rect fill="#ffffff" x="-24.0" y="0.8000000000000007" width="48.0" height="14" />
            <text x="0.0" style="text-anchor: middle" y="11.8">
                <tspan font-size="12px" font-family="Arial" fill="#000000">results</tspan>
            </text>
        </g>
    </g>
    <g transform="translate(586.0,186.0)">
        <line x1="0.0" y1="0.0" x2="51.5" y2="0.0" stroke-dasharray="23, 0" stroke="#000000" stroke-width="1" />
        <g transform="translate(52.0,0.0) rotate(180.0)">
            <polygon points="2.0,0 8.0,-3.0 8.0,3.0" fill="#000000" stroke="#000000" stroke-width="1.0" />
        </g>
    </g>
    <g transform="translate(638.0,206.0)">
        <line x1="0.0" y1="0.0" x2="-51.5" y2="-6.123233995736766E-17" stroke-dasharray="23, 0" stroke="#000000" stroke-width="1" />
        <g transform="translate(-52.0,0.0) rotate(360.0)">
            <polygon points="2.0,0 8.0,-3.0 8.0,3.0" fill="#000000" stroke="#000000" stroke-width="1.0" />
        </g>
    </g>
    <g transform="translate(456.125,173.5)">
        <line x1="0.0" y1="-0.5" x2="0.0" y2="-57.5" stroke-dasharray="23, 0" stroke="#000000" stroke-width="1" />
        <g transform="translate(0.0,0.0) rotate(270.0)">
            <polygon points="2.0,0 8.0,-3.0 8.0,3.0" fill="#000000" stroke="#000000" stroke-width="1.0" />
        </g>
        <g transform="translate(10.0,-33.75)">
            <rect fill="#ffffff" x="-20.0" y="-16.0" width="40.0" height="14" />
            <text x="0.0" style="text-anchor: middle" y="-5.0">
                <tspan font-size="12px" font-family="Arial" fill="#000000">Java</tspan>
            </text>
            <rect fill="#ffffff" x="-20.0" y="0.8000000000000007" width="40.0" height="14" />
            <text x="0.0" style="text-anchor: middle" y="11.8">
                <tspan font-size="12px" font-family="Arial" fill="#000000">query</tspan>
            </text>
        </g>
    </g>
    <g transform="translate(531.0,171.0)">
        <line x1="0.0" y1="0.0" x2="0.0" y2="-54.5" stroke-dasharray="23, 0" stroke="#000000" stroke-width="1" />
        <g transform="translate(0.0,-55.0) rotate(450.0)">
            <polygon points="2.0,0 8.0,-3.0 8.0,3.0" fill="#000000" stroke="#000000" stroke-width="1.0" />
        </g>
        <g transform="translate(10.0,-32.5)">
            <rect fill="#ffffff" x="-25.0" y="-16.0" width="50.0" height="14" />
            <text x="0.0" style="text-anchor: middle" y="-5.0">
                <tspan font-size="12px" font-family="Arial" fill="#000000">Java</tspan>
            </text>
            <rect fill="#ffffff" x="-25.0" y="0.8000000000000007" width="50.0" height="14" />
            <text x="0.0" style="text-anchor: middle" y="11.8">
                <tspan font-size="12px" font-family="Arial" fill="#000000">objects</tspan>
            </text>
        </g>
    </g>
    <g transform="translate(632.0,234.5) rotate(0 75.0 16.5)">
        <g transform="translate(0.0,13.5)">
            <text x="75.0" style="text-anchor: middle" y="-2.0">
                <tspan xml:space="preserve" font-size="12" font-family="Arial" fill="#000000">Objects are cached</tspan>
            </text>
            <text x="75.0" style="text-anchor: middle" y="12.8">
                <tspan xml:space="preserve" font-size="12" font-family="Arial" fill="#000000">by </tspan>
                <tspan xml:space="preserve" font-size="12" font-family="Arial" fill="#000000" font-style="italic">id</tspan>
                <tspan xml:space="preserve" font-size="12" font-family="Arial" fill="#000000"> for fast access</tspan>
            </text>
        </g>
    </g>
    <g transform="translate(168.0,261.5) rotate(0 75.0 23.5)">
        <g transform="translate(0.0,13.5)">
            <text x="75.0" style="text-anchor: middle" y="-2.0">
                <tspan xml:space="preserve" font-size="12" font-family="Arial" fill="#000000">Queries optimised to join</tspan>
            </text>
            <text x="75.0" style="text-anchor: middle" y="12.8">
                <tspan xml:space="preserve" font-size="12" font-family="Arial" fill="#000000">fewer tables and execute</tspan>
            </text>
            <text x="75.0" style="text-anchor: middle" y="27.6">
                <tspan xml:space="preserve" font-size="12" font-family="Arial" fill="#000000">faster</tspan>
            </text>
        </g>
    </g>
    <g transform="translate(240.0,221.0)">
        <line x1="0.0" y1="0.0" x2="0.0" y2="35.5" stroke-dasharray="10, 16" stroke="#000000" stroke-width="1" />
        <g transform="translate(0.0,36.0) rotate(270.0)">
            <polygon points="2.0,0 8.0,-3.0 8.0,3.0" fill="#000000" stroke="#000000" stroke-width="1.0" />
        </g>
    </g>
    <g transform="translate(370.0,314.0)">
        <line x1="-0.49972851495690873" y1="0.016474566427151477" x2="-91.0" y2="3.0" stroke-dasharray="10, 16" stroke="#000000" stroke-width="1" />
        <g transform="translate(0.0,0.0) rotate(178.11181199325907)">
            <polygon points="2.0,0 8.0,-3.0 8.0,3.0" fill="#000000" stroke="#000000" stroke-width="1.0" />
        </g>
        <g transform="translate(-40.49728514956909,-3.5)">
            <rect fill="#ffffff" x="-33.5" y="-16.0" width="67.0" height="14" />
            <text x="0.0" style="text-anchor: middle" y="-5.0">
                <tspan font-size="12px" font-family="Arial" fill="#000000">Optimised</tspan>
            </text>
            <rect fill="#ffffff" x="-33.5" y="0.8000000000000007" width="67.0" height="14" />
            <text x="0.0" style="text-anchor: middle" y="11.8">
                <tspan font-size="12px" font-family="Arial" fill="#000000">SQL</tspan>
            </text>
        </g>
    </g>
    <g transform="translate(164.0,347.5) rotate(0 75.0 16.5)">
        <g transform="translate(0.0,13.5)">
            <text x="75.0" style="text-anchor: middle" y="-2.0">
                <tspan xml:space="preserve" font-size="12" font-family="Arial" fill="#000000">Precomputed</tspan>
            </text>
            <text x="75.0" style="text-anchor: middle" y="12.8">
                <tspan xml:space="preserve" font-size="12" font-family="Arial" fill="#000000">tables</tspan>
            </text>
        </g>
    </g>
    <g transform="translate(369.5,290.75) rotate(0 25.5 23.25)">
        <path d="M0,0 Q0,-5.8125 25.5,-5.8125 Q51.0,-5.8125 51.0,0 L51.0,40.6875 Q51.0,46.5 25.5,46.5 Q0,46.5 0,40.6875 L0,0 Z" stroke="#000000" stroke-width="2" fill="#ffffff" />
        <path d="M0,0 Q0,5.8125 25.5,5.8125 Q51.0,5.8125 51.0,0" stroke="#000000" stroke-width="2" fill="none" />
        <path d="M0,2.90625 Q0,8.71875 25.5,8.71875 Q51.0,8.71875 51.0,2.90625" stroke="#000000" stroke-width="2" fill="none" />
        <path d="M0,5.8125 Q0,11.625 25.5,11.625 Q51.0,11.625 51.0,5.8125 " stroke="#000000" stroke-width="2" fill="none" />
        <g transform="translate(0.0,12.25)">
            <text x="25.5" style="text-anchor: middle" y="-2.0">
                <tspan />
            </text>
            <text x="25.5" style="text-anchor: middle" y="12.8">
                <tspan xml:space="preserve" font-size="12" font-family="Arial" fill="#000000">Master</tspan>
            </text>
            <text x="25.5" style="text-anchor: middle" y="27.6">
                <tspan xml:space="preserve" font-size="12" font-family="Arial" fill="#000000">tables</tspan>
            </text>
        </g>
    </g>
    <g transform="translate(206.75,315.625) rotate(0 14.25 15.375)">
        <path d="M0,0 Q0,-3.84375 14.25,-3.84375 Q28.5,-3.84375 28.5,0 L28.5,26.90625 Q28.5,30.75 14.25,30.75 Q0,30.75 0,26.90625 L0,0 Z" stroke="#000000" stroke-width="2" fill="#ffffff" />
        <path d="M0,0 Q0,3.84375 14.25,3.84375 Q28.5,3.84375 28.5,0" stroke="#000000" stroke-width="2" fill="none" />
        <path d="M0,1.921875 Q0,5.765625 14.25,5.765625 Q28.5,5.765625 28.5,1.921875" stroke="#000000" stroke-width="2" fill="none" />
        <path d="M0,3.84375 Q0,7.6875 14.25,7.6875 Q28.5,7.6875 28.5,3.84375 " stroke="#000000" stroke-width="2" fill="none" />
        <g></g>
    </g>
    <g transform="translate(253.75,314.625) rotate(0 14.25 15.375)">
        <path d="M0,0 Q0,-3.84375 14.25,-3.84375 Q28.5,-3.84375 28.5,0 L28.5,26.90625 Q28.5,30.75 14.25,30.75 Q0,30.75 0,26.90625 L0,0 Z" stroke="#000000" stroke-width="2" fill="#ffffff" />
        <path d="M0,0 Q0,3.84375 14.25,3.84375 Q28.5,3.84375 28.5,0" stroke="#000000" stroke-width="2" fill="none" />
        <path d="M0,1.921875 Q0,5.765625 14.25,5.765625 Q28.5,5.765625 28.5,1.921875" stroke="#000000" stroke-width="2" fill="none" />
        <path d="M0,3.84375 Q0,7.6875 14.25,7.6875 Q28.5,7.6875 28.5,3.84375 " stroke="#000000" stroke-width="2" fill="none" />
        <g></g>
    </g>
    <g transform="translate(430.3125,287.5) rotate(0 77.6875 24.5)">
        <g transform="translate(4.0,4.0)">
            <path d="M145.375,0 Q155.375,0 155.375,10 L155.375,39.0 Q155.375,49.0 145.375,49.0 L10,49.0 Q0,49.0 0,39.0 L0,10 Q0,0 10,0 Z" stroke="#A8A8A8" stroke-width="0" stroke-opacity=".6" fill-opacity=".6" fill="#A8A8A8" />
        </g>
        <path d="M145.375,0 Q155.375,0 155.375,10 L155.375,39.0 Q155.375,49.0 145.375,49.0 L10,49.0 Q0,49.0 0,39.0 L0,10 Q0,0 10,0 Z" stroke="#5C0075" stroke-width="4" fill="#ffffff" />
        <g transform="translate(0.0,32.5)">
            <text x="77.6875" style="text-anchor: middle" y="-3.0">
                <tspan xml:space="preserve" font-size="18" font-family="Arial" fill="#000000" font-weight="bold">PostgreSQL</tspan>
            </text>
        </g>
    </g>
    <g transform="translate(640.875,174.5) rotate(0 65.125 24.5)">
        <g transform="translate(4.0,4.0)">
            <path d="M120.25,0 Q130.25,0 130.25,10 L130.25,39.0 Q130.25,49.0 120.25,49.0 L10,49.0 Q0,49.0 0,39.0 L0,10 Q0,0 10,0 Z" stroke="#A8A8A8" stroke-width="0" stroke-opacity=".6" fill-opacity=".6" fill="#A8A8A8" />
        </g>
        <path d="M120.25,0 Q130.25,0 130.25,10 L130.25,39.0 Q130.25,49.0 120.25,49.0 L10,49.0 Q0,49.0 0,39.0 L0,10 Q0,0 10,0 Z" stroke="#2C70FF" stroke-width="4" fill="#ffffff" />
        <g transform="translate(0.0,21.5)">
            <text x="65.125" style="text-anchor: middle" y="-3.0">
                <tspan xml:space="preserve" font-size="18" font-family="Arial" fill="#000000" font-weight="bold">Object</tspan>
            </text>
            <text x="65.125" style="text-anchor: middle" y="19.2">
                <tspan xml:space="preserve" font-size="18" font-family="Arial" fill="#000000" font-weight="bold">Cache</tspan>
            </text>
        </g>
    </g>
    <g transform="translate(404.3125,172.5) rotate(0 89.6875 24.5)">
        <g transform="translate(4.0,4.0)">
            <path d="M169.375,0 Q179.375,0 179.375,10 L179.375,39.0 Q179.375,49.0 169.375,49.0 L10,49.0 Q0,49.0 0,39.0 L0,10 Q0,0 10,0 Z" stroke="#A8A8A8" stroke-width="0" stroke-opacity=".6" fill-opacity=".6" fill="#A8A8A8" />
        </g>
        <path d="M169.375,0 Q179.375,0 179.375,10 L179.375,39.0 Q179.375,49.0 169.375,49.0 L10,49.0 Q0,49.0 0,39.0 L0,10 Q0,0 10,0 Z" stroke="#2C70FF" stroke-width="4" fill="#ffffff" />
        <g transform="translate(0.0,32.5)">
            <text x="89.6875" style="text-anchor: middle" y="-3.0">
                <tspan xml:space="preserve" font-size="18" font-family="Arial" fill="#000000" font-weight="bold">ObjectStore</tspan>
            </text>
        </g>
    </g>
    <g transform="translate(171.875,173.5) rotate(0 65.125 24.5)">
        <g transform="translate(4.0,4.0)">
            <path d="M120.25,0 Q130.25,0 130.25,10 L130.25,39.0 Q130.25,49.0 120.25,49.0 L10,49.0 Q0,49.0 0,39.0 L0,10 Q0,0 10,0 Z" stroke="#A8A8A8" stroke-width="0" stroke-opacity=".6" fill-opacity=".6" fill="#A8A8A8" />
        </g>
        <path d="M120.25,0 Q130.25,0 130.25,10 L130.25,39.0 Q130.25,49.0 120.25,49.0 L10,49.0 Q0,49.0 0,39.0 L0,10 Q0,0 10,0 Z" stroke="#2C70FF" stroke-width="4" fill="#ffffff" />
        <g transform="translate(0.0,21.5)">
            <text x="65.125" style="text-anchor: middle" y="-3.0">
                <tspan xml:space="preserve" font-size="18" font-family="Arial" fill="#000000" font-weight="bold">Query</tspan>
            </text>
            <text x="65.125" style="text-anchor: middle" y="19.2">
                <tspan xml:space="preserve" font-size="18" font-family="Arial" fill="#000000" font-weight="bold">Optimiser</tspan>
            </text>
        </g>
    </g>
    <g transform="translate(172.875,63.5) rotate(0 65.125 24.5)">
        <g transform="translate(4.0,4.0)">
            <path d="M120.25,0 Q130.25,0 130.25,10 L130.25,39.0 Q130.25,49.0 120.25,49.0 L10,49.0 Q0,49.0 0,39.0 L0,10 Q0,0 10,0 Z" stroke="#A8A8A8" stroke-width="0" stroke-opacity=".6" fill-opacity=".6" fill="#A8A8A8" />
        </g>
        <path d="M120.25,0 Q130.25,0 130.25,10 L130.25,39.0 Q130.25,49.0 120.25,49.0 L10,49.0 Q0,49.0 0,39.0 L0,10 Q0,0 10,0 Z" stroke="#00CC99" stroke-width="4" fill="#ffffff" />
        <g transform="translate(0.0,21.5)">
            <text x="65.125" style="text-anchor: middle" y="-3.0">
                <tspan xml:space="preserve" font-size="18" font-family="Arial" fill="#000000" font-weight="bold">Web</tspan>
            </text>
            <text x="65.125" style="text-anchor: middle" y="19.2">
                <tspan xml:space="preserve" font-size="18" font-family="Arial" fill="#000000" font-weight="bold">Application</tspan>
            </text>
        </g>
    </g>
    <g transform="translate(405.71875,62.5) rotate(0 87.28125 24.5)">
        <g transform="translate(4.0,4.0)">
            <path d="M164.5625,0 Q174.5625,0 174.5625,10 L174.5625,39.0 Q174.5625,49.0 164.5625,49.0 L10,49.0 Q0,49.0 0,39.0 L0,10 Q0,0 10,0 Z" stroke="#A8A8A8" stroke-width="0" stroke-opacity=".6" fill-opacity=".6" fill="#A8A8A8" />
        </g>
        <path d="M164.5625,0 Q174.5625,0 174.5625,10 L174.5625,39.0 Q174.5625,49.0 164.5625,49.0 L10,49.0 Q0,49.0 0,39.0 L0,10 Q0,0 10,0 Z" stroke="#00CC99" stroke-width="4" fill="#ffffff" />
        <g transform="translate(0.0,32.5)">
            <text x="87.28125" style="text-anchor: middle" y="-3.0">
                <tspan xml:space="preserve" font-size="18" font-family="Arial" fill="#000000" font-weight="bold">Web Services</tspan>
            </text>
        </g>
    </g>
</svg>
