<?xml version="1.0" encoding="UTF-8" standalone="no"?>
<svg
   xmlns:dc="http://purl.org/dc/elements/1.1/"
   xmlns:cc="http://creativecommons.org/ns#"
   xmlns:rdf="http://www.w3.org/1999/02/22-rdf-syntax-ns#"
   xmlns:svg="http://www.w3.org/2000/svg"
   xmlns="http://www.w3.org/2000/svg"
   xmlns:sodipodi="http://sodipodi.sourceforge.net/DTD/sodipodi-0.dtd"
   xmlns:inkscape="http://www.inkscape.org/namespaces/inkscape"
   width="801"
   height="398"
   id="svg2"
   version="1.1"
   inkscape:version="0.47 r22583"
   sodipodi:docname="architecture.svg">
  <metadata
     id="metadata360">
    <rdf:RDF>
      <cc:Work
         rdf:about="">
        <dc:format>image/svg+xml</dc:format>
        <dc:type
           rdf:resource="http://purl.org/dc/dcmitype/StillImage" />
      </cc:Work>
    </rdf:RDF>
  </metadata>
  <defs
     id="defs358">
    <inkscape:perspective
       sodipodi:type="inkscape:persp3d"
       inkscape:vp_x="0 : 199 : 1"
       inkscape:vp_y="0 : 1000 : 0"
       inkscape:vp_z="801 : 199 : 1"
       inkscape:persp3d-origin="400.5 : 132.66667 : 1"
       id="perspective362" />
  </defs>
  <sodipodi:namedview
     pagecolor="#ffffff"
     bordercolor="#666666"
     borderopacity="1"
     objecttolerance="10"
     gridtolerance="10"
     guidetolerance="10"
     inkscape:pageopacity="0"
     inkscape:pageshadow="2"
     inkscape:window-width="1234"
     inkscape:window-height="924"
     id="namedview356"
     showgrid="false"
     inkscape:zoom="1.241206"
     inkscape:cx="516.99082"
     inkscape:cy="136.53224"
     inkscape:window-x="0"
     inkscape:window-y="29"
     inkscape:window-maximized="0"
     inkscape:current-layer="svg2" />
  <g
     transform="translate(191.0,305.0) rotate(0 52.75 39.0)"
     id="g6">
    <line
       x1="0.0"
       y1="0.0"
       x2="105.28942115768463"
       y2="0.0"
       style="stroke-dasharray: 8, 3, 2, 3"
       stroke="#000000"
       stroke-width="1.0"
       fill="#ffffff"
       id="line8" />
    <line
       x1="105.28942115768463"
       y1="0.0"
       x2="105.28942115768463"
       y2="77.68924302788844"
       style="stroke-dasharray: 8, 3, 2, 3"
       stroke="#000000"
       stroke-width="1.0"
       fill="#ffffff"
       id="line10" />
    <line
       x1="105.28942115768463"
       y1="77.68924302788844"
       x2="0.0"
       y2="77.68924302788844"
       style="stroke-dasharray: 8, 3, 2, 3"
       stroke="#000000"
       stroke-width="1.0"
       fill="#ffffff"
       id="line12" />
    <line
       x1="0.0"
       y1="77.68924302788844"
       x2="0.0"
       y2="0.0"
       style="stroke-dasharray: 8, 3, 2, 3"
       stroke="#000000"
       stroke-width="1.0"
       fill="#ffffff"
       id="line14" />
    <g
       id="g16" />
  </g>
  <g
     transform="translate(405.0,77.0)"
     id="g18">
    <line
       x1="0.0"
       y1="0.0"
       x2="-93.5"
       y2="-6.123233995736766E-17"
       stroke-dasharray="23, 0"
       stroke="#000000"
       stroke-width="1"
       id="line20" />
    <g
       transform="translate(-94.0,0.0) rotate(360.0)"
       id="g22">
      <polygon
         points="2.0,0 8.0,-3.0 8.0,3.0"
         fill="#000000"
         stroke="#000000"
         stroke-width="1.0"
         id="polygon24" />
    </g>
  </g>
  <g
     transform="translate(398.875,96.0)"
     id="g26">
    <line
       x1="-0.5"
       y1="1.2246467991473532E-16"
       x2="-95.875"
       y2="0.0"
       stroke-dasharray="23, 0"
       stroke="#000000"
       stroke-width="1"
       id="line28" />
    <g
       transform="translate(0.0,0.0) rotate(180.0)"
       id="g30">
      <polygon
         points="2.0,0 8.0,-3.0 8.0,3.0"
         fill="#000000"
         stroke="#000000"
         stroke-width="1.0"
         id="polygon32" />
    </g>
  </g>
  <g
     transform="translate(305.0,196.0)"
     id="g34">
    <line
       x1="0.5"
       y1="-6.123233995736766E-17"
       x2="96.5"
       y2="0.0"
       stroke-dasharray="23, 0"
       stroke="#000000"
       stroke-width="1"
       id="line36" />
    <g
       transform="translate(0.0,0.0) rotate(0.0)"
       id="g38">
      <polygon
         points="2.0,0 8.0,-3.0 8.0,3.0"
         fill="#000000"
         stroke="#000000"
         stroke-width="1.0"
         id="polygon40" />
    </g>
    <g
       transform="translate(38.25,0.0)"
       id="g42">
      <rect
         fill="#ffffff"
         x="-34.0"
         y="-16.0"
         width="68.0"
         height="14"
         id="rect44" />
      <text
         x="0.0"
         style="text-anchor: middle"
         y="-5.0"
         id="text46">
        <tspan
           font-size="12px"
           font-family="Arial"
           fill="#000000"
           id="tspan48">Generated</tspan>
      </text>
      <rect
         fill="#ffffff"
         x="-34.0"
         y="0.8000000000000007"
         width="68.0"
         height="14"
         id="rect50" />
      <text
         x="0.0"
         style="text-anchor: middle"
         y="11.8"
         id="text52">
        <tspan
           font-size="12px"
           font-family="Arial"
           fill="#000000"
           id="tspan54">SQL</tspan>
      </text>
    </g>
  </g>
  <g
     transform="translate(499.0,288.0)"
     id="g56">
    <line
       x1="0.0"
       y1="0.0"
       x2="0.0"
       y2="-60.0"
       stroke-dasharray="23, 0"
       stroke="#000000"
       stroke-width="1"
       id="line58" />
    <g
       transform="translate(0.0,-60.5) rotate(450.0)"
       id="g60">
      <polygon
         points="2.0,0 8.0,-3.0 8.0,3.0"
         fill="#000000"
         stroke="#000000"
         stroke-width="1.0"
         id="polygon62" />
    </g>
    <g
       transform="translate(10.0,-35.25)"
       id="g64">
      <rect
         fill="#ffffff"
         x="-24.0"
         y="-16.0"
         width="48.0"
         height="14"
         id="rect66" />
      <text
         x="0.0"
         style="text-anchor: middle"
         y="-5.0"
         id="text68">
        <tspan
           font-size="12px"
           font-family="Arial"
           fill="#000000"
           id="tspan70">JDBC</tspan>
      </text>
      <rect
         fill="#ffffff"
         x="-24.0"
         y="0.8000000000000007"
         width="48.0"
         height="14"
         id="rect72" />
      <text
         x="0.0"
         style="text-anchor: middle"
         y="11.8"
         id="text74">
        <tspan
           font-size="12px"
           font-family="Arial"
           fill="#000000"
           id="tspan76">results</tspan>
      </text>
    </g>
  </g>
  <g
     transform="translate(586.0,186.0)"
     id="g78">
    <line
       x1="0.0"
       y1="0.0"
       x2="51.5"
       y2="0.0"
       stroke-dasharray="23, 0"
       stroke="#000000"
       stroke-width="1"
       id="line80" />
    <g
       transform="translate(52.0,0.0) rotate(180.0)"
       id="g82">
      <polygon
         points="2.0,0 8.0,-3.0 8.0,3.0"
         fill="#000000"
         stroke="#000000"
         stroke-width="1.0"
         id="polygon84" />
    </g>
  </g>
  <g
     transform="translate(638.0,206.0)"
     id="g86">
    <line
       x1="0.0"
       y1="0.0"
       x2="-51.5"
       y2="-6.123233995736766E-17"
       stroke-dasharray="23, 0"
       stroke="#000000"
       stroke-width="1"
       id="line88" />
    <g
       transform="translate(-52.0,0.0) rotate(360.0)"
       id="g90">
      <polygon
         points="2.0,0 8.0,-3.0 8.0,3.0"
         fill="#000000"
         stroke="#000000"
         stroke-width="1.0"
         id="polygon92" />
    </g>
  </g>
  <g
     transform="translate(456.125,173.5)"
     id="g94">
    <line
       x1="0.0"
       y1="-0.5"
       x2="0.0"
       y2="-57.5"
       stroke-dasharray="23, 0"
       stroke="#000000"
       stroke-width="1"
       id="line96" />
    <g
       transform="translate(0.0,0.0) rotate(270.0)"
       id="g98">
      <polygon
         points="2.0,0 8.0,-3.0 8.0,3.0"
         fill="#000000"
         stroke="#000000"
         stroke-width="1.0"
         id="polygon100" />
    </g>
    <g
       transform="translate(10.0,-33.75)"
       id="g102">
      <rect
         fill="#ffffff"
         x="-20.0"
         y="-16.0"
         width="40.0"
         height="14"
         id="rect104" />
      <text
         x="0.0"
         style="text-anchor: middle"
         y="-5.0"
         id="text106">
        <tspan
           font-size="12px"
           font-family="Arial"
           fill="#000000"
           id="tspan108">Java</tspan>
      </text>
      <rect
         fill="#ffffff"
         x="-20.0"
         y="0.8000000000000007"
         width="40.0"
         height="14"
         id="rect110" />
      <text
         x="0.0"
         style="text-anchor: middle"
         y="11.8"
         id="text112">
        <tspan
           font-size="12px"
           font-family="Arial"
           fill="#000000"
           id="tspan114">query</tspan>
      </text>
    </g>
  </g>
  <g
     transform="translate(531.0,171.0)"
     id="g116">
    <line
       x1="0.0"
       y1="0.0"
       x2="0.0"
       y2="-54.5"
       stroke-dasharray="23, 0"
       stroke="#000000"
       stroke-width="1"
       id="line118" />
    <g
       transform="translate(0.0,-55.0) rotate(450.0)"
       id="g120">
      <polygon
         points="2.0,0 8.0,-3.0 8.0,3.0"
         fill="#000000"
         stroke="#000000"
         stroke-width="1.0"
         id="polygon122" />
    </g>
    <g
       transform="translate(10.0,-32.5)"
       id="g124">
      <rect
         fill="#ffffff"
         x="-25.0"
         y="-16.0"
         width="50.0"
         height="14"
         id="rect126" />
      <text
         x="0.0"
         style="text-anchor: middle"
         y="-5.0"
         id="text128">
        <tspan
           font-size="12px"
           font-family="Arial"
           fill="#000000"
           id="tspan130">Java</tspan>
      </text>
      <rect
         fill="#ffffff"
         x="-25.0"
         y="0.8000000000000007"
         width="50.0"
         height="14"
         id="rect132" />
      <text
         x="0.0"
         style="text-anchor: middle"
         y="11.8"
         id="text134">
        <tspan
           font-size="12px"
           font-family="Arial"
           fill="#000000"
           id="tspan136">objects</tspan>
      </text>
    </g>
  </g>
  <g
     transform="translate(632.0,234.5) rotate(0 75.0 16.5)"
     id="g138">
    <g
       transform="translate(0.0,13.5)"
       id="g140">
      <text
         x="75.0"
         style="text-anchor: middle"
         y="-2.0"
         id="text142">
        <tspan
           xml:space="preserve"
           font-size="12"
           font-family="Arial"
           fill="#000000"
           id="tspan144">Objects are cached</tspan>      </text>
      <text
         x="75.0"
         style="text-anchor: middle"
         y="12.8"
         id="text146">
        <tspan
           xml:space="preserve"
           font-size="12"
           font-family="Arial"
           fill="#000000"
           id="tspan148">by </tspan>        <tspan
           xml:space="preserve"
           font-size="12"
           font-family="Arial"
           fill="#000000"
           font-style="italic"
           id="tspan150">id</tspan>        <tspan
           xml:space="preserve"
           font-size="12"
           font-family="Arial"
           fill="#000000"
           id="tspan152"> for fast access</tspan>      </text>
    </g>
  </g>
  <g
     transform="translate(168.0,261.5) rotate(0 75.0 23.5)"
     id="g154">
    <g
       transform="translate(0.0,13.5)"
       id="g156">
      <text
         x="75.0"
         style="text-anchor: middle"
         y="-2.0"
         id="text158">
        <tspan
           xml:space="preserve"
           font-size="12"
           font-family="Arial"
           fill="#000000"
           id="tspan160">Queries optimised to join</tspan>      </text>
      <text
         x="75.0"
         style="text-anchor: middle"
         y="12.8"
         id="text162">
        <tspan
           xml:space="preserve"
           font-size="12"
           font-family="Arial"
           fill="#000000"
           id="tspan164">fewer tables and execute</tspan>      </text>
      <text
         x="75.0"
         style="text-anchor: middle"
         y="27.6"
         id="text166">
        <tspan
           xml:space="preserve"
           font-size="12"
           font-family="Arial"
           fill="#000000"
           id="tspan168">faster</tspan>      </text>
    </g>
  </g>
  <g
     transform="translate(240.0,221.0)"
     id="g170">
    <line
       x1="0.0"
       y1="0.0"
       x2="0.0"
       y2="35.5"
       stroke-dasharray="10, 16"
       stroke="#000000"
       stroke-width="1"
       id="line172" />
    <g
       transform="translate(0.0,36.0) rotate(270.0)"
       id="g174">
      <polygon
         points="2.0,0 8.0,-3.0 8.0,3.0"
         fill="#000000"
         stroke="#000000"
         stroke-width="1.0"
         id="polygon176" />
    </g>
  </g>
  <g
     transform="translate(370.0,314.0)"
     id="g178">
    <line
       x1="-0.49972851495690873"
       y1="0.016474566427151477"
       x2="-91.0"
       y2="3.0"
       stroke-dasharray="10, 16"
       stroke="#000000"
       stroke-width="1"
       id="line180" />
    <g
       transform="translate(0.0,0.0) rotate(178.11181199325907)"
       id="g182">
      <polygon
         points="2.0,0 8.0,-3.0 8.0,3.0"
         fill="#000000"
         stroke="#000000"
         stroke-width="1.0"
         id="polygon184" />
    </g>
    <g
       transform="translate(-40.49728514956909,-3.5)"
       id="g186">
      <rect
         fill="#ffffff"
         x="-33.5"
         y="-16.0"
         width="67.0"
         height="14"
         id="rect188" />
      <text
         x="0.0"
         style="text-anchor: middle"
         y="-5.0"
         id="text190">
        <tspan
           font-size="12px"
           font-family="Arial"
           fill="#000000"
           id="tspan192">Optimised</tspan>
      </text>
      <rect
         fill="#ffffff"
         x="-33.5"
         y="0.8000000000000007"
         width="67.0"
         height="14"
         id="rect194" />
      <text
         x="0.0"
         style="text-anchor: middle"
         y="11.8"
         id="text196">
        <tspan
           font-size="12px"
           font-family="Arial"
           fill="#000000"
           id="tspan198">SQL</tspan>
      </text>
    </g>
  </g>
  <g
     transform="translate(164.0,347.5) rotate(0 75.0 16.5)"
     id="g200">
    <g
       transform="translate(0.0,13.5)"
       id="g202">
      <text
         x="75.0"
         style="text-anchor: middle"
         y="-2.0"
         id="text204">
        <tspan
           xml:space="preserve"
           font-size="12"
           font-family="Arial"
           fill="#000000"
           id="tspan206">Precomputed</tspan>      </text>
      <text
         x="75.0"
         style="text-anchor: middle"
         y="12.8"
         id="text208">
        <tspan
           xml:space="preserve"
           font-size="12"
           font-family="Arial"
           fill="#000000"
           id="tspan210">tables</tspan>      </text>
    </g>
  </g>
  <g
     transform="translate(369.5,290.75) rotate(0 25.5 23.25)"
     id="g212">
    <path
       d="M0,0 Q0,-5.8125 25.5,-5.8125 Q51.0,-5.8125 51.0,0 L51.0,40.6875 Q51.0,46.5 25.5,46.5 Q0,46.5 0,40.6875 L0,0 Z"
       stroke="#000000"
       stroke-width="2"
       fill="#ffffff"
       id="path214" />
    <path
       d="M0,0 Q0,5.8125 25.5,5.8125 Q51.0,5.8125 51.0,0"
       stroke="#000000"
       stroke-width="2"
       fill="none"
       id="path216" />
    <path
       d="M0,2.90625 Q0,8.71875 25.5,8.71875 Q51.0,8.71875 51.0,2.90625"
       stroke="#000000"
       stroke-width="2"
       fill="none"
       id="path218" />
    <path
       d="M0,5.8125 Q0,11.625 25.5,11.625 Q51.0,11.625 51.0,5.8125 "
       stroke="#000000"
       stroke-width="2"
       fill="none"
       id="path220" />
    <g
       transform="translate(0.0,12.25)"
       id="g222">
      <text
         x="25.5"
         style="text-anchor: middle"
         y="-2.0"
         id="text224">
        <tspan
           id="tspan226" />
      </text>
      <text
         x="25.5"
         style="text-anchor: middle"
         y="12.8"
         id="text228">
        <tspan
           xml:space="preserve"
           font-size="12"
           font-family="Arial"
           fill="#000000"
           id="tspan230">Master</tspan>      </text>
      <text
         x="25.5"
         style="text-anchor: middle"
         y="27.6"
         id="text232">
        <tspan
           xml:space="preserve"
           font-size="12"
           font-family="Arial"
           fill="#000000"
           id="tspan234">tables</tspan>      </text>
    </g>
  </g>
  <g
     transform="translate(206.75,315.625) rotate(0 14.25 15.375)"
     id="g236">
    <path
       d="M0,0 Q0,-3.84375 14.25,-3.84375 Q28.5,-3.84375 28.5,0 L28.5,26.90625 Q28.5,30.75 14.25,30.75 Q0,30.75 0,26.90625 L0,0 Z"
       stroke="#000000"
       stroke-width="2"
       fill="#ffffff"
       id="path238" />
    <path
       d="M0,0 Q0,3.84375 14.25,3.84375 Q28.5,3.84375 28.5,0"
       stroke="#000000"
       stroke-width="2"
       fill="none"
       id="path240" />
    <path
       d="M0,1.921875 Q0,5.765625 14.25,5.765625 Q28.5,5.765625 28.5,1.921875"
       stroke="#000000"
       stroke-width="2"
       fill="none"
       id="path242" />
    <path
       d="M0,3.84375 Q0,7.6875 14.25,7.6875 Q28.5,7.6875 28.5,3.84375 "
       stroke="#000000"
       stroke-width="2"
       fill="none"
       id="path244" />
    <g
       id="g246" />
  </g>
  <g
     transform="translate(253.75,314.625) rotate(0 14.25 15.375)"
     id="g248">
    <path
       d="M0,0 Q0,-3.84375 14.25,-3.84375 Q28.5,-3.84375 28.5,0 L28.5,26.90625 Q28.5,30.75 14.25,30.75 Q0,30.75 0,26.90625 L0,0 Z"
       stroke="#000000"
       stroke-width="2"
       fill="#ffffff"
       id="path250" />
    <path
       d="M0,0 Q0,3.84375 14.25,3.84375 Q28.5,3.84375 28.5,0"
       stroke="#000000"
       stroke-width="2"
       fill="none"
       id="path252" />
    <path
       d="M0,1.921875 Q0,5.765625 14.25,5.765625 Q28.5,5.765625 28.5,1.921875"
       stroke="#000000"
       stroke-width="2"
       fill="none"
       id="path254" />
    <path
       d="M0,3.84375 Q0,7.6875 14.25,7.6875 Q28.5,7.6875 28.5,3.84375 "
       stroke="#000000"
       stroke-width="2"
       fill="none"
       id="path256" />
    <g
       id="g258" />
  </g>
  <g
     transform="translate(430.3125,287.5) rotate(0 77.6875 24.5)"
     id="g260">
    <g
       transform="translate(4.0,4.0)"
       id="g262">
      <path
         d="M145.375,0 Q155.375,0 155.375,10 L155.375,39.0 Q155.375,49.0 145.375,49.0 L10,49.0 Q0,49.0 0,39.0 L0,10 Q0,0 10,0 Z"
         stroke="#A8A8A8"
         stroke-width="0"
         stroke-opacity=".6"
         fill-opacity=".6"
         fill="#A8A8A8"
         id="path264" />
    </g>
    <path
       d="M145.375,0 Q155.375,0 155.375,10 L155.375,39.0 Q155.375,49.0 145.375,49.0 L10,49.0 Q0,49.0 0,39.0 L0,10 Q0,0 10,0 Z"
       stroke="#5C0075"
       stroke-width="4"
       fill="#ffffff"
       id="path266" />
    <g
       transform="translate(0.0,32.5)"
       id="g268">
      <text
         x="77.6875"
         style="text-anchor: middle"
         y="-3.0"
         id="text270">
        <tspan
           xml:space="preserve"
           font-size="18"
           font-family="Arial"
           fill="#000000"
           font-weight="bold"
           id="tspan272">PostgreSQL</tspan>      </text>
    </g>
  </g>
  <g
     transform="translate(640.875,174.5) rotate(0 65.125 24.5)"
     id="g274">
    <g
       transform="translate(4.0,4.0)"
       id="g276">
      <path
         d="M120.25,0 Q130.25,0 130.25,10 L130.25,39.0 Q130.25,49.0 120.25,49.0 L10,49.0 Q0,49.0 0,39.0 L0,10 Q0,0 10,0 Z"
         stroke="#A8A8A8"
         stroke-width="0"
         stroke-opacity=".6"
         fill-opacity=".6"
         fill="#A8A8A8"
         id="path278" />
    </g>
    <path
       d="M120.25,0 Q130.25,0 130.25,10 L130.25,39.0 Q130.25,49.0 120.25,49.0 L10,49.0 Q0,49.0 0,39.0 L0,10 Q0,0 10,0 Z"
       stroke="#2C70FF"
       stroke-width="4"
       fill="#ffffff"
       id="path280" />
    <g
       transform="translate(0.0,21.5)"
       id="g282">
      <text
         x="65.125"
         style="text-anchor: middle"
         y="-3.0"
         id="text284">
        <tspan
           xml:space="preserve"
           font-size="18"
           font-family="Arial"
           fill="#000000"
           font-weight="bold"
           id="tspan286">Object</tspan>      </text>
      <text
         x="65.125"
         style="text-anchor: middle"
         y="19.2"
         id="text288">
        <tspan
           xml:space="preserve"
           font-size="18"
           font-family="Arial"
           fill="#000000"
           font-weight="bold"
           id="tspan290">Cache</tspan>      </text>
    </g>
  </g>
  <g
     transform="translate(404.3125,172.5) rotate(0 89.6875 24.5)"
     id="g292">
    <g
       transform="translate(4.0,4.0)"
       id="g294">
      <path
         d="M169.375,0 Q179.375,0 179.375,10 L179.375,39.0 Q179.375,49.0 169.375,49.0 L10,49.0 Q0,49.0 0,39.0 L0,10 Q0,0 10,0 Z"
         stroke="#A8A8A8"
         stroke-width="0"
         stroke-opacity=".6"
         fill-opacity=".6"
         fill="#A8A8A8"
         id="path296" />
    </g>
    <path
       d="M169.375,0 Q179.375,0 179.375,10 L179.375,39.0 Q179.375,49.0 169.375,49.0 L10,49.0 Q0,49.0 0,39.0 L0,10 Q0,0 10,0 Z"
       stroke="#2C70FF"
       stroke-width="4"
       fill="#ffffff"
       id="path298" />
    <g
       transform="translate(0.0,32.5)"
       id="g300">
      <text
         x="89.6875"
         style="text-anchor: middle"
         y="-3.0"
         id="text302">
        <tspan
           xml:space="preserve"
           font-size="18"
           font-family="Arial"
           fill="#000000"
           font-weight="bold"
           id="tspan304">ObjectStore</tspan>      </text>
    </g>
  </g>
  <g
     transform="translate(171.875,173.5) rotate(0 65.125 24.5)"
     id="g306">
    <g
       transform="translate(4.0,4.0)"
       id="g308">
      <path
         d="M120.25,0 Q130.25,0 130.25,10 L130.25,39.0 Q130.25,49.0 120.25,49.0 L10,49.0 Q0,49.0 0,39.0 L0,10 Q0,0 10,0 Z"
         stroke="#A8A8A8"
         stroke-width="0"
         stroke-opacity=".6"
         fill-opacity=".6"
         fill="#A8A8A8"
         id="path310" />
    </g>
    <path
       d="M120.25,0 Q130.25,0 130.25,10 L130.25,39.0 Q130.25,49.0 120.25,49.0 L10,49.0 Q0,49.0 0,39.0 L0,10 Q0,0 10,0 Z"
       stroke="#2C70FF"
       stroke-width="4"
       fill="#ffffff"
       id="path312" />
    <g
       transform="translate(0.0,21.5)"
       id="g314">
      <text
         x="65.125"
         style="text-anchor: middle"
         y="-3.0"
         id="text316">
        <tspan
           xml:space="preserve"
           font-size="18"
           font-family="Arial"
           fill="#000000"
           font-weight="bold"
           id="tspan318">Query</tspan>      </text>
      <text
         x="65.125"
         style="text-anchor: middle"
         y="19.2"
         id="text320">
        <tspan
           xml:space="preserve"
           font-size="18"
           font-family="Arial"
           fill="#000000"
           font-weight="bold"
           id="tspan322">Optimiser</tspan>      </text>
    </g>
  </g>
  <g
     transform="translate(172.875,63.5) rotate(0 65.125 24.5)"
     id="g324">
    <g
       transform="translate(4.0,4.0)"
       id="g326">
      <path
         d="M120.25,0 Q130.25,0 130.25,10 L130.25,39.0 Q130.25,49.0 120.25,49.0 L10,49.0 Q0,49.0 0,39.0 L0,10 Q0,0 10,0 Z"
         stroke="#A8A8A8"
         stroke-width="0"
         stroke-opacity=".6"
         fill-opacity=".6"
         fill="#A8A8A8"
         id="path328" />
    </g>
    <path
       d="M120.25,0 Q130.25,0 130.25,10 L130.25,39.0 Q130.25,49.0 120.25,49.0 L10,49.0 Q0,49.0 0,39.0 L0,10 Q0,0 10,0 Z"
       stroke="#00CC99"
       stroke-width="4"
       fill="#ffffff"
       id="path330" />
    <g
       transform="translate(0.0,21.5)"
       id="g332">
      <text
         x="65.125"
         style="text-anchor: middle"
         y="-3.0"
         id="text334">
        <tspan
           xml:space="preserve"
           font-size="18"
           font-family="Arial"
           fill="#000000"
           font-weight="bold"
           id="tspan336">Web</tspan>      </text>
      <text
         x="65.125"
         style="text-anchor: middle"
         y="19.2"
         id="text338">
        <tspan
           xml:space="preserve"
           font-size="18"
           font-family="Arial"
           fill="#000000"
           font-weight="bold"
           id="tspan340">Application</tspan>      </text>
    </g>
  </g>
  <g
     transform="translate(405.71875,62.5) rotate(0 87.28125 24.5)"
     id="g342">
    <g
       transform="translate(4.0,4.0)"
       id="g344">
      <path
         d="M164.5625,0 Q174.5625,0 174.5625,10 L174.5625,39.0 Q174.5625,49.0 164.5625,49.0 L10,49.0 Q0,49.0 0,39.0 L0,10 Q0,0 10,0 Z"
         stroke="#A8A8A8"
         stroke-width="0"
         stroke-opacity=".6"
         fill-opacity=".6"
         fill="#A8A8A8"
         id="path346" />
    </g>
    <path
       d="M164.5625,0 Q174.5625,0 174.5625,10 L174.5625,39.0 Q174.5625,49.0 164.5625,49.0 L10,49.0 Q0,49.0 0,39.0 L0,10 Q0,0 10,0 Z"
       stroke="#00CC99"
       stroke-width="4"
       fill="#ffffff"
       id="path348" />
    <g
       transform="translate(0.0,32.5)"
       id="g350">
      <text
         x="87.28125"
         style="text-anchor: middle"
         y="-3.0"
         id="text352">
        <tspan
           xml:space="preserve"
           font-size="18"
           font-family="Arial"
           fill="#000000"
           font-weight="bold"
           id="tspan354">Web Services</tspan>      </text>
    </g>
  </g>
</svg>
