<?xml version="1.0" encoding="UTF-8"?>
<svg width="640px" height="320px" viewBox="0 0 640 320" version="1.1" xmlns="http://www.w3.org/2000/svg" xmlns:xlink="http://www.w3.org/1999/xlink">
    <!-- Generator: Sketch 58 (84663) - https://sketch.com -->
    <title>github-intermine-3@2x</title>
    <desc>Created with Sketch.</desc>
    <g id="github-intermine-3" stroke="none" stroke-width="1" fill="none" fill-rule="evenodd">
        <rect id="Rectangle" fill="#FFFFFF" fill-rule="nonzero" x="0" y="0" width="640" height="320"></rect>
        <g id="rainbow" transform="translate(0.000000, 310.000000)">
            <g id="Rectangle">
                <rect fill="#3F51B5" fill-rule="nonzero" x="552" y="0" width="92" height="6"></rect>
                <rect fill="#9C27B0" fill-rule="nonzero" x="460" y="0" width="92" height="6"></rect>
                <rect fill="#00BCD4" fill-rule="nonzero" x="368" y="0" width="92" height="6"></rect>
                <rect fill="#8BC34A" fill-rule="nonzero" x="276" y="0" width="92" height="6"></rect>
                <rect fill="#FFC107" fill-rule="nonzero" x="184" y="0" width="92" height="6"></rect>
                <rect fill="#FF5722" fill-rule="nonzero" x="92" y="0" width="92" height="6"></rect>
                <rect fill="#E91E63" fill-rule="nonzero" x="6.39488462e-14" y="0" width="92" height="6"></rect>
            </g>
        </g>
        <g id="rainbow" transform="translate(0.000000, 4.000000)">
            <g id="Rectangle">
                <rect fill="#3F51B5" fill-rule="nonzero" x="552" y="0" width="92" height="6"></rect>
                <rect fill="#9C27B0" fill-rule="nonzero" x="460" y="0" width="92" height="6"></rect>
                <rect fill="#00BCD4" fill-rule="nonzero" x="368" y="0" width="92" height="6"></rect>
                <rect fill="#8BC34A" fill-rule="nonzero" x="276" y="0" width="92" height="6"></rect>
                <rect fill="#FFC107" fill-rule="nonzero" x="184" y="0" width="92" height="6"></rect>
                <rect fill="#FF5722" fill-rule="nonzero" x="92" y="0" width="92" height="6"></rect>
                <rect fill="#E91E63" fill-rule="nonzero" x="6.39488462e-14" y="0" width="92" height="6"></rect>
            </g>
        </g>
        <g id="logo" transform="translate(109.000000, 133.000000)">
            <g id="Group">
                <path d="M187.77025,11.719 L189.806022,11.725537 C198.459727,11.8007347 204.82525,12.7263214 204.82525,23.904 L204.821281,24.4766886 C204.720991,31.6032733 202.680201,37.48775 194.194,37.48775 L174.33275,37.48775 L174.33275,42.36025 L204.82525,42.36025 L204.82525,53.07025 L174.33275,53.07025 C163.33025,53.07025 163.55084,44.059 163.55084,35.86275 C163.55084,32.5411875 163.634324,29.219625 163.675901,25.8970078 L163.699,22.574 C163.699,16.2538589 167.773079,12.0052422 174.023601,11.8698342 L174.33275,11.8665 C178.7615,11.8665 183.2665,11.719 187.77025,11.719 Z M81.3615,1.309 L81.3615,52.9965 L70.50775,52.9965 L70.50775,1.309 L81.3615,1.309 Z M241.158875,11.867125 C250.018875,11.867125 251.938875,17.995875 251.865125,25.528375 L251.792625,32.099625 L241.158875,32.099625 L241.158875,22.499625 L221.297625,22.499625 L221.297625,52.995875 L210.665125,52.995875 L210.665125,11.867125 L241.158875,11.867125 Z M111.192,11.719375 C113.55575,11.719375 115.992,11.794375 118.3545,11.941875 C130.02075,12.826875 128.397,24.051875 128.397,32.544375 C128.397,39.335625 128.24825,46.201875 128.24825,52.995625 L117.61575,52.995625 L117.61575,22.500625 L97.7545,22.500625 L97.7545,52.995625 L87.122,52.995625 L87.122,22.500625 C87.122,16.076875 91.3295,11.866875 97.7545,11.866875 C102.1845,11.866875 106.68825,11.719375 111.192,11.719375 Z M152.251,0.64375 L152.251,11.8675 L162.43975,11.8675 L162.43975,22.5 L152.251,22.5 L152.251,52.995 L141.6185,52.995 L141.6185,22.5 L131.5035,22.5 L131.5035,11.8675 L141.6185,11.8675 L141.6185,0.64375 L152.251,0.64375 Z M194.194,22.50025 L174.33275,22.50025 L174.33275,26.93025 L194.194,26.93025 L194.194,22.50025 Z" id="Shape" fill="#C0D848" fill-rule="nonzero"></path>
                <path d="M422.8165,23.904 L422.812531,24.4766886 C422.712241,31.6032733 420.671451,37.48775 412.18525,37.48775 L392.32525,37.48775 L392.32525,42.36025 L422.8165,42.36025 L422.8165,53.07025 L392.32525,53.07025 C381.324,53.07025 381.543351,44.059 381.543351,35.86275 C381.543351,32.5411875 381.626826,29.219625 381.668402,25.8970078 L381.6915,22.574 C381.6915,16.2538589 385.765579,12.0052422 392.016101,11.8698342 L392.32525,11.8665 C396.75275,11.8665 401.25775,11.719 405.764,11.719 L407.799273,11.725537 C416.450977,11.8007347 422.8165,12.7263214 422.8165,23.904 Z M329.039,13.2715 L329.039,52.9965 L318.4065,52.9965 L318.4065,13.2715 L329.039,13.2715 Z M274.982,1.308125 L284.36075,42.139375 L293.737,1.308125 L312.5645,1.308125 L312.5645,52.995625 L301.71075,52.995625 L301.71075,13.343125 L292.627,52.995625 L276.0895,52.995625 L267.00825,13.343125 L267.00825,52.995625 L256.15325,52.995625 L256.15325,1.308125 L274.982,1.308125 Z M358.795125,11.719375 C361.158875,11.719375 363.595125,11.794375 365.957625,11.941875 C377.50845,12.818025 376.031296,23.828409 376.000598,32.2887933 L376.000125,32.544375 C376.000125,39.335625 375.852625,46.201875 375.852625,52.995625 L365.220125,52.995625 L365.220125,22.500625 L345.357625,22.500625 L345.357625,52.995625 L334.726375,52.995625 L334.726375,22.500625 C334.726375,16.076875 338.935125,11.866875 345.357625,11.866875 C349.788875,11.866875 354.292625,11.719375 358.795125,11.719375 Z M412.18525,22.50025 L392.324,22.50025 L392.324,26.93025 L412.18525,26.93025 L412.18525,22.50025 Z M329.039,1.384 L329.039,11.86775 L318.4065,11.86775 L318.4065,1.384 L329.039,1.384 Z" id="Shape" fill="#373535" fill-rule="nonzero"></path>
                <path d="M0.9325,37.67125 L28.61125,37.67125 C29.0884167,37.67125 29.4828278,38.1481833 29.5332952,38.7646396 L29.53875,38.89875 L29.53875,51.35625 C29.53875,51.9944167 29.17615,52.5138944 28.7121381,52.5803219 L28.61125,52.5875 L0.9325,52.5875 C0.451833333,52.5875 0.0561,52.1105667 0.00547185185,51.4910615 L2.41059643e-14,51.35625 L2.41059643e-14,38.89875 C2.41059643e-14,38.2640833 0.363688889,37.7448389 0.830894815,37.678427 L0.9325,37.67125 L28.61125,37.67125 L0.9325,37.67125 Z M0.9325,19.7865 L28.61125,19.7865 C29.0884167,19.7865 29.4828278,20.2699667 29.5332952,20.8883104 L29.53875,21.02275 L29.53875,33.48025 C29.53875,34.1114167 29.17615,34.6347833 28.7121381,34.7017604 L28.61125,34.709 L0.9325,34.709 C0.451833333,34.709 0.0561,34.2277111 0.00547185185,33.613723 L2.41059643e-14,33.48025 L2.41059643e-14,21.02275 C2.41059643e-14,20.3869167 0.363688889,19.8610611 0.830894815,19.793773 L0.9325,19.7865 Z M32.546875,2.024125 L60.223125,2.024125 C60.7037917,2.024125 61.099525,2.50214722 61.1501531,3.12179759 L61.155625,3.256625 L61.155625,15.712875 C61.155625,16.3475417 60.7919361,16.8711417 60.3247302,16.9381343 L60.223125,16.945375 L32.546875,16.945375 C32.067375,16.945375 31.6717194,16.4640861 31.6210965,15.8470491 L31.615625,15.712875 L31.615625,3.256625 C31.615625,2.61845833 31.9793139,2.09789167 32.4455035,2.03131907 L32.546875,2.024125 Z" id="Shape" fill="#C0D848" fill-rule="nonzero"></path>
                <path d="M32.546875,37.67125 L60.223125,37.67125 C60.7037917,37.67125 61.099525,38.1481833 61.1501531,38.7646396 L61.155625,38.89875 L61.155625,51.35625 C61.155625,51.9944167 60.7919361,52.5138944 60.3247302,52.5803219 L60.223125,52.5875 L32.546875,52.5875 C32.067375,52.5875 31.6717194,52.1105667 31.6210965,51.4910615 L31.615625,51.35625 L31.615625,38.89875 C31.615625,38.2640833 31.9793139,37.7448389 32.4455035,37.678427 L32.546875,37.67125 L60.223125,37.67125 L32.546875,37.67125 Z M32.546875,19.7865 L60.223125,19.7865 C60.7037917,19.7865 61.099525,20.2699667 61.1501531,20.8883104 L61.155625,21.02275 L61.155625,33.48025 C61.155625,34.1114167 60.7919361,34.6347833 60.3247302,34.7017604 L60.223125,34.709 L32.546875,34.709 C32.067375,34.709 31.6717194,34.2277111 31.6210965,33.613723 L31.615625,33.48025 L31.615625,21.02275 C31.615625,20.3869167 31.9793139,19.8610611 32.4455035,19.793773 L32.546875,19.7865 Z M0.9325,2.024125 L28.61125,2.024125 C29.0884167,2.024125 29.4828278,2.50214722 29.5332952,3.12179759 L29.53875,3.256625 L29.53875,15.712875 C29.53875,16.3475417 29.17615,16.8711417 28.7121381,16.9381343 L28.61125,16.945375 L0.9325,16.945375 C0.451833333,16.945375 0.0561,16.4640861 0.00547185185,15.8470491 L2.41062704e-14,15.712875 L2.41062704e-14,3.256625 C2.41062704e-14,2.61845833 0.363688889,2.09789167 0.830894815,2.03131907 L0.9325,2.024125 Z" id="Shape" fill="#373535" fill-rule="nonzero"></path>
            </g>
        </g>
    </g>
</svg>