<?xml version="1.0" encoding="UTF-8"?>
<svg width="640px" height="320px" viewBox="0 0 640 320" version="1.1" xmlns="http://www.w3.org/2000/svg" xmlns:xlink="http://www.w3.org/1999/xlink">
    <!-- Generator: Sketch 58 (84663) - https://sketch.com -->
    <title>github-intermine-1</title>
    <desc>Created with Sketch.</desc>
    <g id="github-intermine-1" stroke="none" stroke-width="1" fill="none" fill-rule="evenodd">
        <rect fill="#F1F3F5" x="0" y="0" width="640" height="320"></rect>
        <rect id="Rectangle" fill="#FFFFFF" fill-rule="nonzero" x="0" y="0" width="640" height="320"></rect>
        <path d="M88,160 L552,160 C556.418278,160 560,163.581722 560,168 L560,320 L560,320 L80,320 L80,168 C80,163.581722 83.581722,160 88,160 Z" id="Rectangle" fill="#002B36" fill-rule="nonzero"></path>
        <text id="code@intermine:~-$-r" font-family="FiraCode-Medium, Fira Code" font-size="16" font-weight="400">
            <tspan x="96" y="195" fill="#85FF00">code@intermine:~ </tspan>
            <tspan x="263.384615" y="195" fill="#80959A">$ repo name</tspan>
            <tspan x="371.692308" y="195" fill="#85FF00"></tspan>
            <tspan x="96" y="219" fill="#FFFFFF">intermine</tspan>
            <tspan x="184.615385" y="219" fill="#85FF00"></tspan>
            <tspan x="96" y="243" fill="#85FF00">code@intermine:~ </tspan>
            <tspan x="263.384615" y="243" fill="#80959A">$ repo url</tspan>
            <tspan x="361.846154" y="243" fill="#85FF00"></tspan>
            <tspan x="96" y="267" fill="#FFFFFF">https://github.com/intermine/intermine</tspan>
            <tspan x="470.153846" y="267" fill="#85FF00"></tspan>
        </text>
        <g id="logo" transform="translate(163.000000, 64.000000)">
            <g id="Group">
                <path d="M138.941107,8.68074074 L140.447482,8.68558296 C146.850815,8.74128496 151.561001,9.42690476 151.561001,17.7066667 L151.558064,18.1308804 C151.483854,23.4098321 149.973766,27.7687037 143.694378,27.7687037 L128.997992,27.7687037 L128.997992,31.377963 L151.561001,31.377963 L151.561001,39.3112963 L128.997992,39.3112963 C120.856663,39.3112963 121.019889,32.6362963 121.019889,26.565 C121.019889,24.1045833 121.081663,21.6441667 121.112428,19.1829687 L121.12952,16.7214815 C121.12952,12.0398955 124.144146,8.892772 128.769237,8.79246978 L128.997992,8.79 C132.275058,8.79 135.608545,8.68074074 138.941107,8.68074074 Z M60.2036631,0.96962963 L60.2036631,39.2566667 L52.1724013,39.2566667 L52.1724013,0.96962963 L60.2036631,0.96962963 Z M178.446165,8.79046296 C185.002146,8.79046296 186.422855,13.3302778 186.368284,18.9099074 L186.314637,23.7775 L178.446165,23.7775 L178.446165,16.6663889 L163.749779,16.6663889 L163.749779,39.2562037 L155.882232,39.2562037 L155.882232,8.79046296 L178.446165,8.79046296 Z M82.2768227,8.68101852 C84.0258859,8.68101852 85.8285957,8.73657407 87.576734,8.84583333 C96.2092074,9.50138889 95.0077092,17.8162037 95.0077092,24.1069444 C95.0077092,29.1375 94.8976413,34.2236111 94.8976413,39.2560185 L87.030094,39.2560185 L87.030094,16.6671296 L72.333708,16.6671296 L72.333708,39.2560185 L64.4661608,39.2560185 L64.4661608,16.6671296 C64.4661608,11.9087963 67.5795118,8.79027778 72.333708,8.79027778 C75.6116986,8.79027778 78.9442606,8.68101852 82.2768227,8.68101852 Z M112.658541,0.476851852 L112.658541,8.79074074 L120.197735,8.79074074 L120.197735,16.6666667 L112.658541,16.6666667 L112.658541,39.2555556 L104.790994,39.2555556 L104.790994,16.6666667 L97.3063723,16.6666667 L97.3063723,8.79074074 L104.790994,8.79074074 L104.790994,0.476851852 L112.658541,0.476851852 Z M143.694378,16.6668519 L128.997992,16.6668519 L128.997992,19.9483333 L143.694378,19.9483333 L143.694378,16.6668519 Z" id="Shape" fill="#C0D848" fill-rule="nonzero"></path>
                <path d="M312.864219,17.7066667 L312.861282,18.1308804 C312.787072,23.4098321 311.276984,27.7687037 304.997596,27.7687037 L290.302135,27.7687037 L290.302135,31.377963 L312.864219,31.377963 L312.864219,39.3112963 L290.302135,39.3112963 C282.16173,39.3112963 282.32404,32.6362963 282.32404,26.565 C282.32404,24.1045833 282.385808,21.6441667 282.416572,19.1829687 L282.433663,16.7214815 C282.433663,12.0398955 285.448289,8.892772 290.07338,8.79246978 L290.302135,8.79 C293.578276,8.79 296.911763,8.68074074 300.246175,8.68074074 L301.752181,8.68558296 C308.154033,8.74128496 312.864219,9.42690476 312.864219,17.7066667 Z M243.473303,9.83074074 L243.473303,39.2566667 L235.605755,39.2566667 L235.605755,9.83074074 L243.473303,9.83074074 Z M203.473678,0.968981481 L210.41351,31.2143519 L217.351492,0.968981481 L231.282952,0.968981481 L231.282952,39.2560185 L223.25169,39.2560185 L223.25169,9.8837963 L216.530144,39.2560185 L204.293176,39.2560185 L197.57348,9.8837963 L197.57348,39.2560185 L189.541294,39.2560185 L189.541294,0.968981481 L203.473678,0.968981481 Z M265.491428,8.68101852 C267.240491,8.68101852 269.043201,8.73657407 270.79134,8.84583333 C279.338404,9.49483333 278.24538,17.6506733 278.222664,23.9176247 L278.222315,24.1069444 C278.222315,29.1375 278.113172,34.2236111 278.113172,39.2560185 L270.245624,39.2560185 L270.245624,16.6671296 L255.548314,16.6671296 L255.548314,39.2560185 L247.681691,39.2560185 L247.681691,16.6671296 C247.681691,11.9087963 250.795967,8.79027778 255.548314,8.79027778 C258.827229,8.79027778 262.159791,8.68101852 265.491428,8.68101852 Z M304.997596,16.6668519 L290.30121,16.6668519 L290.30121,19.9483333 L304.997596,19.9483333 L304.997596,16.6668519 Z M243.473303,1.02518519 L243.473303,8.79092593 L235.605755,8.79092593 L235.605755,1.02518519 L243.473303,1.02518519 Z" id="Shape" fill="#373535" fill-rule="nonzero"></path>
                <path d="M0.69000591,27.9046296 L21.1709722,27.9046296 C21.524053,27.9046296 21.8158986,28.2579136 21.8532421,28.7145479 L21.8572784,28.8138889 L21.8572784,38.0416667 C21.8572784,38.5143827 21.5889715,38.8991811 21.2456247,38.9483866 L21.1709722,38.9537037 L0.69000591,38.9537037 C0.334335303,38.9537037 0.0415113475,38.6004198 0.00404891165,38.141527 L2.41059643e-14,38.0416667 L2.41059643e-14,28.8138889 C2.41059643e-14,28.3437654 0.269112582,27.9591399 0.614822877,27.909946 L0.69000591,27.9046296 L21.1709722,27.9046296 L0.69000591,27.9046296 Z M0.69000591,14.6566667 L21.1709722,14.6566667 C21.524053,14.6566667 21.8158986,15.0147901 21.8532421,15.4728225 L21.8572784,15.5724074 L21.8572784,24.8001852 C21.8572784,25.267716 21.5889715,25.6553951 21.2456247,25.7050077 L21.1709722,25.7103704 L0.69000591,25.7103704 C0.334335303,25.7103704 0.0415113475,25.3538601 0.00404891165,24.899054 L2.41059643e-14,24.8001852 L2.41059643e-14,15.5724074 C2.41059643e-14,15.1014198 0.269112582,14.7118971 0.614822877,14.662054 L0.69000591,14.6566667 Z M24.0831486,1.49935185 L44.5622651,1.49935185 C44.9179357,1.49935185 45.2107596,1.85344239 45.2482221,2.31244266 L45.252271,2.41231481 L45.252271,11.6391667 C45.252271,12.1092901 44.9831584,12.497142 44.6374481,12.5467661 L44.5622651,12.5521296 L24.0831486,12.5521296 C23.7283413,12.5521296 23.4355749,12.1956193 23.3981163,11.7385549 L23.3940677,11.6391667 L23.3940677,2.41231481 C23.3940677,1.93959877 23.6631803,1.55399383 24.0081385,1.5046808 L24.0831486,1.49935185 Z" id="Shape" fill="#C0D848" fill-rule="nonzero"></path>
                <path d="M24.0831486,27.9046296 L44.5622651,27.9046296 C44.9179357,27.9046296 45.2107596,28.2579136 45.2482221,28.7145479 L45.252271,28.8138889 L45.252271,38.0416667 C45.252271,38.5143827 44.9831584,38.8991811 44.6374481,38.9483866 L44.5622651,38.9537037 L24.0831486,38.9537037 C23.7283413,38.9537037 23.4355749,38.6004198 23.3981163,38.141527 L23.3940677,38.0416667 L23.3940677,28.8138889 C23.3940677,28.3437654 23.6631803,27.9591399 24.0081385,27.909946 L24.0831486,27.9046296 L44.5622651,27.9046296 L24.0831486,27.9046296 Z M24.0831486,14.6566667 L44.5622651,14.6566667 C44.9179357,14.6566667 45.2107596,15.0147901 45.2482221,15.4728225 L45.252271,15.5724074 L45.252271,24.8001852 C45.252271,25.267716 44.9831584,25.6553951 44.6374481,25.7050077 L44.5622651,25.7103704 L24.0831486,25.7103704 C23.7283413,25.7103704 23.4355749,25.3538601 23.3981163,24.899054 L23.3940677,24.8001852 L23.3940677,15.5724074 C23.3940677,15.1014198 23.6631803,14.7118971 24.0081385,14.662054 L24.0831486,14.6566667 Z M0.69000591,1.49935185 L21.1709722,1.49935185 C21.524053,1.49935185 21.8158986,1.85344239 21.8532421,2.31244266 L21.8572784,2.41231481 L21.8572784,11.6391667 C21.8572784,12.1092901 21.5889715,12.497142 21.2456247,12.5467661 L21.1709722,12.5521296 L0.69000591,12.5521296 C0.334335303,12.5521296 0.0415113475,12.1956193 0.00404891165,11.7385549 L2.41062704e-14,11.6391667 L2.41062704e-14,2.41231481 C2.41062704e-14,1.93959877 0.269112582,1.55399383 0.614822877,1.5046808 L0.69000591,1.49935185 Z" id="Shape" fill="#373535" fill-rule="nonzero"></path>
            </g>
        </g>
    </g>
</svg>